<mxfile host="Electron" agent="Mozilla/5.0 (Windows NT 10.0; Win64; x64) AppleWebKit/537.36 (KHTML, like Gecko) draw.io/27.0.9 Chrome/134.0.6998.205 Electron/35.4.0 Safari/537.36" version="27.0.9">
  <diagram name="Page-1" id="QBJ2P0L4-g8qpySl_a1f">
    <mxGraphModel dx="1489" dy="1747" grid="1" gridSize="10" guides="1" tooltips="1" connect="1" arrows="1" fold="1" page="1" pageScale="1" pageWidth="1100" pageHeight="850" math="0" shadow="0">
      <root>
        <mxCell id="0" />
        <mxCell id="1" parent="0" />
        <mxCell id="ZRgWqNr8BsxTpK86CNp5-329" value="" style="endArrow=none;html=1;rounded=0;entryX=0.998;entryY=0.946;entryDx=0;entryDy=0;entryPerimeter=0;strokeWidth=2.5;" parent="1" edge="1">
          <mxGeometry width="50" height="50" relative="1" as="geometry">
            <mxPoint x="888.5" y="-24" as="sourcePoint" />
            <mxPoint x="888.5" y="-56" as="targetPoint" />
          </mxGeometry>
        </mxCell>
        <mxCell id="ZRgWqNr8BsxTpK86CNp5-327" value="" style="endArrow=none;html=1;rounded=0;strokeWidth=2.5;" parent="1" edge="1">
          <mxGeometry width="50" height="50" relative="1" as="geometry">
            <mxPoint x="536" y="-24" as="sourcePoint" />
            <mxPoint x="536" y="-56" as="targetPoint" />
          </mxGeometry>
        </mxCell>
        <mxCell id="ZRgWqNr8BsxTpK86CNp5-3" value="" style="pointerEvents=1;verticalLabelPosition=bottom;shadow=0;dashed=0;align=center;html=1;verticalAlign=top;shape=mxgraph.electrical.capacitors.capacitor_1;rotation=90;strokeWidth=2.5;" parent="1" vertex="1">
          <mxGeometry x="345" y="365" width="60" height="30" as="geometry" />
        </mxCell>
        <mxCell id="ZRgWqNr8BsxTpK86CNp5-4" value="" style="pointerEvents=1;verticalLabelPosition=bottom;shadow=0;dashed=0;align=center;html=1;verticalAlign=top;shape=mxgraph.electrical.capacitors.capacitor_1;rotation=90;strokeWidth=2.5;" parent="1" vertex="1">
          <mxGeometry x="405" y="365" width="60" height="30" as="geometry" />
        </mxCell>
        <mxCell id="ZRgWqNr8BsxTpK86CNp5-6" value="" style="pointerEvents=1;verticalLabelPosition=bottom;shadow=0;dashed=0;align=center;html=1;verticalAlign=top;shape=mxgraph.electrical.capacitors.capacitor_1;rotation=90;strokeWidth=2.5;" parent="1" vertex="1">
          <mxGeometry x="525" y="365" width="60" height="30" as="geometry" />
        </mxCell>
        <mxCell id="ZRgWqNr8BsxTpK86CNp5-7" value="" style="pointerEvents=1;verticalLabelPosition=bottom;shadow=0;dashed=0;align=center;html=1;verticalAlign=top;shape=mxgraph.electrical.capacitors.capacitor_1;rotation=90;strokeWidth=2.5;" parent="1" vertex="1">
          <mxGeometry x="585" y="365" width="60" height="30" as="geometry" />
        </mxCell>
        <mxCell id="ZRgWqNr8BsxTpK86CNp5-8" value="" style="endArrow=none;html=1;rounded=0;strokeWidth=2.5;" parent="1" edge="1">
          <mxGeometry width="50" height="50" relative="1" as="geometry">
            <mxPoint x="375" y="285" as="sourcePoint" />
            <mxPoint x="680" y="285" as="targetPoint" />
          </mxGeometry>
        </mxCell>
        <mxCell id="ZRgWqNr8BsxTpK86CNp5-9" value="" style="endArrow=none;html=1;rounded=0;exitX=0;exitY=0.5;exitDx=0;exitDy=0;exitPerimeter=0;strokeWidth=2.5;" parent="1" edge="1">
          <mxGeometry width="50" height="50" relative="1" as="geometry">
            <mxPoint x="375" y="351" as="sourcePoint" />
            <mxPoint x="375" y="285" as="targetPoint" />
          </mxGeometry>
        </mxCell>
        <mxCell id="ZRgWqNr8BsxTpK86CNp5-10" value="" style="endArrow=none;html=1;rounded=0;exitX=0;exitY=0.5;exitDx=0;exitDy=0;exitPerimeter=0;strokeWidth=2.5;" parent="1" edge="1">
          <mxGeometry width="50" height="50" relative="1" as="geometry">
            <mxPoint x="435" y="350" as="sourcePoint" />
            <mxPoint x="435" y="285" as="targetPoint" />
          </mxGeometry>
        </mxCell>
        <mxCell id="ZRgWqNr8BsxTpK86CNp5-12" value="" style="endArrow=none;html=1;rounded=0;exitX=0;exitY=0.5;exitDx=0;exitDy=0;exitPerimeter=0;strokeWidth=2.5;" parent="1" edge="1">
          <mxGeometry width="50" height="50" relative="1" as="geometry">
            <mxPoint x="555" y="356" as="sourcePoint" />
            <mxPoint x="555" y="285" as="targetPoint" />
          </mxGeometry>
        </mxCell>
        <mxCell id="ZRgWqNr8BsxTpK86CNp5-13" value="" style="endArrow=none;html=1;rounded=0;exitX=0;exitY=0.5;exitDx=0;exitDy=0;exitPerimeter=0;strokeWidth=2.5;" parent="1" edge="1">
          <mxGeometry width="50" height="50" relative="1" as="geometry">
            <mxPoint x="615" y="355" as="sourcePoint" />
            <mxPoint x="615" y="285" as="targetPoint" />
          </mxGeometry>
        </mxCell>
        <mxCell id="ZRgWqNr8BsxTpK86CNp5-15" value="&lt;font style=&quot;font-size: 14px;&quot;&gt;&lt;b&gt;2&lt;sup style=&quot;&quot;&gt;0&lt;/sup&gt;&lt;/b&gt;&lt;/font&gt;&lt;b style=&quot;font-size: 14px;&quot;&gt;C&lt;sub&gt;u&lt;/sub&gt;&lt;/b&gt;" style="text;strokeColor=none;align=center;fillColor=none;html=1;verticalAlign=middle;whiteSpace=wrap;rounded=0;strokeWidth=2.5;" parent="1" vertex="1">
          <mxGeometry x="610" y="345" width="60" height="30" as="geometry" />
        </mxCell>
        <mxCell id="ZRgWqNr8BsxTpK86CNp5-16" value="&lt;b style=&quot;forced-color-adjust: none; color: rgb(0, 0, 0); font-family: Helvetica; font-size: 14px; font-style: normal; font-variant-ligatures: normal; font-variant-caps: normal; letter-spacing: normal; orphans: 2; text-align: center; text-indent: 0px; text-transform: none; widows: 2; word-spacing: 0px; -webkit-text-stroke-width: 0px; white-space: normal; background-color: rgb(251, 251, 251); text-decoration-thickness: initial; text-decoration-style: initial; text-decoration-color: initial;&quot;&gt;2&lt;sup&gt;1&lt;/sup&gt;&lt;/b&gt;&lt;b style=&quot;font-size: 14px; text-align: center;&quot;&gt;C&lt;sub&gt;u&lt;/sub&gt;&lt;/b&gt;" style="text;whiteSpace=wrap;html=1;strokeWidth=2.5;" parent="1" vertex="1">
          <mxGeometry x="560" y="345" width="60" height="40" as="geometry" />
        </mxCell>
        <mxCell id="ZRgWqNr8BsxTpK86CNp5-18" value="&lt;b style=&quot;font-size: 14px; text-align: center;&quot;&gt;&lt;span style=&quot;background-color: rgb(251, 251, 251);&quot;&gt;2&lt;sup&gt;5&lt;/sup&gt;&lt;/span&gt;C&lt;sub&gt;u&lt;/sub&gt;&lt;/b&gt;" style="text;whiteSpace=wrap;html=1;strokeWidth=2.5;" parent="1" vertex="1">
          <mxGeometry x="440" y="345" width="60" height="40" as="geometry" />
        </mxCell>
        <mxCell id="ZRgWqNr8BsxTpK86CNp5-19" value="&lt;div style=&quot;text-align: center;&quot;&gt;&lt;span style=&quot;font-size: 14px; background-color: rgb(251, 251, 251);&quot;&gt;&lt;b&gt;C&lt;sub&gt;u&lt;/sub&gt;&lt;/b&gt;&lt;/span&gt;&lt;/div&gt;" style="text;whiteSpace=wrap;html=1;strokeWidth=2.5;" parent="1" vertex="1">
          <mxGeometry x="380" y="345" width="45" height="35" as="geometry" />
        </mxCell>
        <mxCell id="ZRgWqNr8BsxTpK86CNp5-20" value="" style="pointerEvents=1;verticalLabelPosition=bottom;shadow=0;dashed=0;align=center;html=1;verticalAlign=top;shape=mxgraph.electrical.electro-mechanical.selectorSwitch3Position2;elSwitchState=1;rotation=90;strokeWidth=2.5;" parent="1" vertex="1">
          <mxGeometry x="397.5" y="450" width="75" height="46" as="geometry" />
        </mxCell>
        <mxCell id="ZRgWqNr8BsxTpK86CNp5-22" value="" style="pointerEvents=1;verticalLabelPosition=bottom;shadow=0;dashed=0;align=center;html=1;verticalAlign=top;shape=mxgraph.electrical.electro-mechanical.selectorSwitch3Position2;elSwitchState=1;rotation=90;strokeWidth=2.5;" parent="1" vertex="1">
          <mxGeometry x="517.5" y="450" width="75" height="46" as="geometry" />
        </mxCell>
        <mxCell id="ZRgWqNr8BsxTpK86CNp5-23" value="" style="pointerEvents=1;verticalLabelPosition=bottom;shadow=0;dashed=0;align=center;html=1;verticalAlign=top;shape=mxgraph.electrical.electro-mechanical.selectorSwitch3Position2;elSwitchState=1;rotation=90;strokeWidth=2.5;" parent="1" vertex="1">
          <mxGeometry x="577.5" y="450" width="75" height="46" as="geometry" />
        </mxCell>
        <mxCell id="ZRgWqNr8BsxTpK86CNp5-24" value="" style="endArrow=none;html=1;rounded=0;exitX=1;exitY=0.5;exitDx=0;exitDy=0;exitPerimeter=0;strokeWidth=2.5;" parent="1" edge="1">
          <mxGeometry width="50" height="50" relative="1" as="geometry">
            <mxPoint x="375" y="410" as="sourcePoint" />
            <mxPoint x="375" y="440" as="targetPoint" />
          </mxGeometry>
        </mxCell>
        <mxCell id="ZRgWqNr8BsxTpK86CNp5-25" value="" style="endArrow=none;html=1;rounded=0;exitX=1;exitY=0.5;exitDx=0;exitDy=0;exitPerimeter=0;strokeWidth=2.5;" parent="1" edge="1">
          <mxGeometry width="50" height="50" relative="1" as="geometry">
            <mxPoint x="435" y="410" as="sourcePoint" />
            <mxPoint x="435" y="440" as="targetPoint" />
          </mxGeometry>
        </mxCell>
        <mxCell id="ZRgWqNr8BsxTpK86CNp5-27" value="" style="endArrow=none;html=1;rounded=0;exitX=1;exitY=0.5;exitDx=0;exitDy=0;exitPerimeter=0;strokeWidth=2.5;" parent="1" edge="1">
          <mxGeometry width="50" height="50" relative="1" as="geometry">
            <mxPoint x="555" y="410" as="sourcePoint" />
            <mxPoint x="555" y="440" as="targetPoint" />
          </mxGeometry>
        </mxCell>
        <mxCell id="ZRgWqNr8BsxTpK86CNp5-28" value="" style="endArrow=none;html=1;rounded=0;exitX=1;exitY=0.5;exitDx=0;exitDy=0;exitPerimeter=0;strokeWidth=2.5;" parent="1" edge="1">
          <mxGeometry width="50" height="50" relative="1" as="geometry">
            <mxPoint x="615" y="410" as="sourcePoint" />
            <mxPoint x="615" y="440" as="targetPoint" />
          </mxGeometry>
        </mxCell>
        <mxCell id="ZRgWqNr8BsxTpK86CNp5-29" value="" style="endArrow=none;html=1;rounded=0;strokeColor=light-dark(#133eec, #ededed);strokeWidth=2.5;" parent="1" source="ZRgWqNr8BsxTpK86CNp5-45" edge="1">
          <mxGeometry width="50" height="50" relative="1" as="geometry">
            <mxPoint x="-205" y="540" as="sourcePoint" />
            <mxPoint x="595" y="540" as="targetPoint" />
          </mxGeometry>
        </mxCell>
        <mxCell id="ZRgWqNr8BsxTpK86CNp5-30" value="" style="endArrow=none;html=1;rounded=0;strokeWidth=2.5;" parent="1" source="ZRgWqNr8BsxTpK86CNp5-51" target="ZRgWqNr8BsxTpK86CNp5-49" edge="1">
          <mxGeometry width="50" height="50" relative="1" as="geometry">
            <mxPoint x="-205" y="560" as="sourcePoint" />
            <mxPoint x="635" y="560" as="targetPoint" />
          </mxGeometry>
        </mxCell>
        <mxCell id="ZRgWqNr8BsxTpK86CNp5-31" value="" style="endArrow=none;html=1;rounded=0;strokeColor=#16FF56;strokeWidth=2.5;" parent="1" source="ZRgWqNr8BsxTpK86CNp5-66" edge="1">
          <mxGeometry width="50" height="50" relative="1" as="geometry">
            <mxPoint x="-205" y="580" as="sourcePoint" />
            <mxPoint x="635" y="580" as="targetPoint" />
          </mxGeometry>
        </mxCell>
        <mxCell id="ZRgWqNr8BsxTpK86CNp5-32" value="" style="endArrow=none;html=1;rounded=0;strokeWidth=2.5;" parent="1" source="ZRgWqNr8BsxTpK86CNp5-88" edge="1">
          <mxGeometry width="50" height="50" relative="1" as="geometry">
            <mxPoint x="365.1" y="540" as="sourcePoint" />
            <mxPoint x="365.1" y="510" as="targetPoint" />
          </mxGeometry>
        </mxCell>
        <mxCell id="ZRgWqNr8BsxTpK86CNp5-33" value="" style="endArrow=none;html=1;rounded=0;entryX=0.993;entryY=0.935;entryDx=0;entryDy=0;entryPerimeter=0;strokeWidth=2.5;" parent="1" edge="1">
          <mxGeometry width="50" height="50" relative="1" as="geometry">
            <mxPoint x="414.79999999999995" y="540" as="sourcePoint" />
            <mxPoint x="414.80000000000996" y="508" as="targetPoint" />
          </mxGeometry>
        </mxCell>
        <mxCell id="ZRgWqNr8BsxTpK86CNp5-35" value="" style="endArrow=none;html=1;rounded=0;entryX=0.993;entryY=0.94;entryDx=0;entryDy=0;entryPerimeter=0;strokeWidth=2.5;" parent="1" target="ZRgWqNr8BsxTpK86CNp5-22" edge="1">
          <mxGeometry width="50" height="50" relative="1" as="geometry">
            <mxPoint x="535" y="540" as="sourcePoint" />
            <mxPoint x="535" y="470" as="targetPoint" />
          </mxGeometry>
        </mxCell>
        <mxCell id="ZRgWqNr8BsxTpK86CNp5-36" value="" style="endArrow=none;html=1;rounded=0;entryX=0.998;entryY=0.946;entryDx=0;entryDy=0;entryPerimeter=0;strokeWidth=2.5;" parent="1" edge="1">
          <mxGeometry width="50" height="50" relative="1" as="geometry">
            <mxPoint x="594.75" y="540" as="sourcePoint" />
            <mxPoint x="594.75" y="510" as="targetPoint" />
          </mxGeometry>
        </mxCell>
        <mxCell id="ZRgWqNr8BsxTpK86CNp5-37" value="" style="endArrow=none;html=1;rounded=0;strokeColor=light-dark(#133eec, #ededed);strokeWidth=2.5;" parent="1" edge="1">
          <mxGeometry width="50" height="50" relative="1" as="geometry">
            <mxPoint x="295" y="540" as="sourcePoint" />
            <mxPoint x="365" y="540" as="targetPoint" />
          </mxGeometry>
        </mxCell>
        <mxCell id="ZRgWqNr8BsxTpK86CNp5-38" value="" style="endArrow=none;html=1;rounded=0;strokeColor=light-dark(#133eec, #ededed);strokeWidth=2.5;" parent="1" target="ZRgWqNr8BsxTpK86CNp5-39" edge="1">
          <mxGeometry width="50" height="50" relative="1" as="geometry">
            <mxPoint x="365" y="540" as="sourcePoint" />
            <mxPoint x="635" y="540" as="targetPoint" />
          </mxGeometry>
        </mxCell>
        <mxCell id="ZRgWqNr8BsxTpK86CNp5-39" value="" style="shape=waypoint;sketch=0;fillStyle=solid;size=6;pointerEvents=1;points=[];fillColor=none;resizable=0;rotatable=0;perimeter=centerPerimeter;snapToPoint=1;strokeColor=light-dark(#133eec, #ededed);strokeWidth=2.5;" parent="1" vertex="1">
          <mxGeometry x="405" y="530" width="20" height="20" as="geometry" />
        </mxCell>
        <mxCell id="ZRgWqNr8BsxTpK86CNp5-40" value="" style="endArrow=none;html=1;rounded=0;strokeColor=light-dark(#133eec, #ededed);strokeWidth=2.5;" parent="1" source="ZRgWqNr8BsxTpK86CNp5-39" edge="1">
          <mxGeometry width="50" height="50" relative="1" as="geometry">
            <mxPoint x="415" y="540" as="sourcePoint" />
            <mxPoint x="475" y="540" as="targetPoint" />
          </mxGeometry>
        </mxCell>
        <mxCell id="ZRgWqNr8BsxTpK86CNp5-42" value="" style="endArrow=none;html=1;rounded=0;strokeColor=light-dark(#133eec, #ededed);strokeWidth=2.5;" parent="1" target="ZRgWqNr8BsxTpK86CNp5-43" edge="1">
          <mxGeometry width="50" height="50" relative="1" as="geometry">
            <mxPoint x="475" y="540" as="sourcePoint" />
            <mxPoint x="635" y="540" as="targetPoint" />
          </mxGeometry>
        </mxCell>
        <mxCell id="ZRgWqNr8BsxTpK86CNp5-43" value="" style="shape=waypoint;sketch=0;fillStyle=solid;size=6;pointerEvents=1;points=[];fillColor=none;resizable=0;rotatable=0;perimeter=centerPerimeter;snapToPoint=1;strokeColor=light-dark(#133eec, #ededed);strokeWidth=2.5;" parent="1" vertex="1">
          <mxGeometry x="525" y="530" width="20" height="20" as="geometry" />
        </mxCell>
        <mxCell id="ZRgWqNr8BsxTpK86CNp5-44" value="" style="endArrow=none;html=1;rounded=0;strokeColor=light-dark(#133eec, #ededed);strokeWidth=2.5;" parent="1" source="ZRgWqNr8BsxTpK86CNp5-43" target="ZRgWqNr8BsxTpK86CNp5-45" edge="1">
          <mxGeometry width="50" height="50" relative="1" as="geometry">
            <mxPoint x="535" y="540" as="sourcePoint" />
            <mxPoint x="635" y="540" as="targetPoint" />
          </mxGeometry>
        </mxCell>
        <mxCell id="ZRgWqNr8BsxTpK86CNp5-45" value="" style="shape=waypoint;sketch=0;fillStyle=solid;size=6;pointerEvents=1;points=[];fillColor=none;resizable=0;rotatable=0;perimeter=centerPerimeter;snapToPoint=1;strokeColor=light-dark(#133eec, #ededed);strokeWidth=2.5;" parent="1" vertex="1">
          <mxGeometry x="585" y="530" width="20" height="20" as="geometry" />
        </mxCell>
        <mxCell id="ZRgWqNr8BsxTpK86CNp5-46" value="" style="endArrow=none;html=1;rounded=0;entryX=0.993;entryY=0.5;entryDx=0;entryDy=0;entryPerimeter=0;strokeWidth=2.5;" parent="1" target="ZRgWqNr8BsxTpK86CNp5-23" edge="1">
          <mxGeometry width="50" height="50" relative="1" as="geometry">
            <mxPoint x="615" y="560" as="sourcePoint" />
            <mxPoint x="515" y="470" as="targetPoint" />
          </mxGeometry>
        </mxCell>
        <mxCell id="ZRgWqNr8BsxTpK86CNp5-47" value="" style="endArrow=none;html=1;rounded=0;entryX=0.993;entryY=0.5;entryDx=0;entryDy=0;entryPerimeter=0;strokeWidth=2.5;" parent="1" target="ZRgWqNr8BsxTpK86CNp5-22" edge="1">
          <mxGeometry width="50" height="50" relative="1" as="geometry">
            <mxPoint x="555" y="560" as="sourcePoint" />
            <mxPoint x="585" y="490" as="targetPoint" />
          </mxGeometry>
        </mxCell>
        <mxCell id="ZRgWqNr8BsxTpK86CNp5-49" value="" style="shape=waypoint;sketch=0;fillStyle=solid;size=6;pointerEvents=1;points=[];fillColor=none;resizable=0;rotatable=0;perimeter=centerPerimeter;snapToPoint=1;strokeWidth=2.5;" parent="1" vertex="1">
          <mxGeometry x="605" y="550" width="20" height="20" as="geometry" />
        </mxCell>
        <mxCell id="ZRgWqNr8BsxTpK86CNp5-50" value="" style="endArrow=none;html=1;rounded=0;strokeWidth=2.5;" parent="1" target="ZRgWqNr8BsxTpK86CNp5-51" edge="1">
          <mxGeometry width="50" height="50" relative="1" as="geometry">
            <mxPoint x="495" y="560" as="sourcePoint" />
            <mxPoint x="635" y="560" as="targetPoint" />
          </mxGeometry>
        </mxCell>
        <mxCell id="ZRgWqNr8BsxTpK86CNp5-51" value="" style="shape=waypoint;sketch=0;fillStyle=solid;size=6;pointerEvents=1;points=[];fillColor=none;resizable=0;rotatable=0;perimeter=centerPerimeter;snapToPoint=1;strokeWidth=2.5;" parent="1" vertex="1">
          <mxGeometry x="545" y="550" width="20" height="20" as="geometry" />
        </mxCell>
        <mxCell id="ZRgWqNr8BsxTpK86CNp5-52" value="" style="endArrow=none;html=1;rounded=0;strokeWidth=2.5;" parent="1" source="ZRgWqNr8BsxTpK86CNp5-56" edge="1">
          <mxGeometry width="50" height="50" relative="1" as="geometry">
            <mxPoint x="-205" y="560" as="sourcePoint" />
            <mxPoint x="495" y="560" as="targetPoint" />
          </mxGeometry>
        </mxCell>
        <mxCell id="ZRgWqNr8BsxTpK86CNp5-54" value="" style="endArrow=none;html=1;rounded=0;entryX=0.993;entryY=0.5;entryDx=0;entryDy=0;entryPerimeter=0;strokeWidth=2.5;" parent="1" target="ZRgWqNr8BsxTpK86CNp5-20" edge="1">
          <mxGeometry width="50" height="50" relative="1" as="geometry">
            <mxPoint x="435" y="560" as="sourcePoint" />
            <mxPoint x="425" y="470" as="targetPoint" />
          </mxGeometry>
        </mxCell>
        <mxCell id="ZRgWqNr8BsxTpK86CNp5-55" value="" style="endArrow=none;html=1;rounded=0;strokeWidth=2.5;" parent="1" target="ZRgWqNr8BsxTpK86CNp5-56" edge="1">
          <mxGeometry width="50" height="50" relative="1" as="geometry">
            <mxPoint x="375" y="560" as="sourcePoint" />
            <mxPoint x="495" y="560" as="targetPoint" />
          </mxGeometry>
        </mxCell>
        <mxCell id="ZRgWqNr8BsxTpK86CNp5-56" value="" style="shape=waypoint;sketch=0;fillStyle=solid;size=6;pointerEvents=1;points=[];fillColor=none;resizable=0;rotatable=0;perimeter=centerPerimeter;snapToPoint=1;strokeWidth=2.5;" parent="1" vertex="1">
          <mxGeometry x="425" y="550" width="20" height="20" as="geometry" />
        </mxCell>
        <mxCell id="ZRgWqNr8BsxTpK86CNp5-57" value="" style="endArrow=none;html=1;rounded=0;strokeWidth=2.5;" parent="1" edge="1">
          <mxGeometry width="50" height="50" relative="1" as="geometry">
            <mxPoint x="260" y="560" as="sourcePoint" />
            <mxPoint x="375" y="560" as="targetPoint" />
          </mxGeometry>
        </mxCell>
        <mxCell id="ZRgWqNr8BsxTpK86CNp5-58" value="" style="endArrow=none;html=1;rounded=0;entryX=0.999;entryY=0.052;entryDx=0;entryDy=0;entryPerimeter=0;strokeWidth=2.5;" parent="1" edge="1">
          <mxGeometry width="50" height="50" relative="1" as="geometry">
            <mxPoint x="385" y="580" as="sourcePoint" />
            <mxPoint x="385" y="510.42499999999995" as="targetPoint" />
          </mxGeometry>
        </mxCell>
        <mxCell id="ZRgWqNr8BsxTpK86CNp5-59" value="" style="endArrow=none;html=1;rounded=0;entryX=0.999;entryY=0.052;entryDx=0;entryDy=0;entryPerimeter=0;strokeWidth=2.5;" parent="1" edge="1">
          <mxGeometry width="50" height="50" relative="1" as="geometry">
            <mxPoint x="455.25" y="579.5799999999999" as="sourcePoint" />
            <mxPoint x="455.25" y="510.0049999999999" as="targetPoint" />
          </mxGeometry>
        </mxCell>
        <mxCell id="ZRgWqNr8BsxTpK86CNp5-61" value="" style="endArrow=none;html=1;rounded=0;entryX=0.999;entryY=0.052;entryDx=0;entryDy=0;entryPerimeter=0;strokeWidth=2.5;" parent="1" edge="1">
          <mxGeometry width="50" height="50" relative="1" as="geometry">
            <mxPoint x="575.25" y="579.5799999999999" as="sourcePoint" />
            <mxPoint x="575.25" y="510.0049999999999" as="targetPoint" />
          </mxGeometry>
        </mxCell>
        <mxCell id="ZRgWqNr8BsxTpK86CNp5-62" value="" style="endArrow=none;html=1;rounded=0;entryX=0.999;entryY=0.052;entryDx=0;entryDy=0;entryPerimeter=0;strokeWidth=2.5;" parent="1" source="ZRgWqNr8BsxTpK86CNp5-64" edge="1">
          <mxGeometry width="50" height="50" relative="1" as="geometry">
            <mxPoint x="635.25" y="580" as="sourcePoint" />
            <mxPoint x="635.25" y="510.0049999999999" as="targetPoint" />
          </mxGeometry>
        </mxCell>
        <mxCell id="ZRgWqNr8BsxTpK86CNp5-63" value="" style="endArrow=none;html=1;rounded=0;entryDx=0;entryDy=0;entryPerimeter=0;strokeColor=#16FF56;strokeWidth=2.5;" parent="1" target="ZRgWqNr8BsxTpK86CNp5-64" edge="1">
          <mxGeometry width="50" height="50" relative="1" as="geometry">
            <mxPoint x="635.25" y="580" as="sourcePoint" />
            <mxPoint x="635.25" y="510.0049999999999" as="targetPoint" />
          </mxGeometry>
        </mxCell>
        <mxCell id="ZRgWqNr8BsxTpK86CNp5-64" value="" style="shape=waypoint;sketch=0;fillStyle=solid;size=6;pointerEvents=1;points=[];fillColor=none;resizable=0;rotatable=0;perimeter=centerPerimeter;snapToPoint=1;strokeColor=#16FF56;strokeWidth=2.5;" parent="1" vertex="1">
          <mxGeometry x="625" y="570" width="20" height="20" as="geometry" />
        </mxCell>
        <mxCell id="ZRgWqNr8BsxTpK86CNp5-65" value="" style="endArrow=none;html=1;rounded=0;strokeColor=#16FF56;strokeWidth=2.5;" parent="1" target="ZRgWqNr8BsxTpK86CNp5-66" edge="1">
          <mxGeometry width="50" height="50" relative="1" as="geometry">
            <mxPoint x="515" y="580" as="sourcePoint" />
            <mxPoint x="635" y="580" as="targetPoint" />
          </mxGeometry>
        </mxCell>
        <mxCell id="ZRgWqNr8BsxTpK86CNp5-66" value="" style="shape=waypoint;sketch=0;fillStyle=solid;size=6;pointerEvents=1;points=[];fillColor=none;resizable=0;rotatable=0;perimeter=centerPerimeter;snapToPoint=1;gradientColor=none;strokeColor=#16FF56;strokeWidth=2.5;" parent="1" vertex="1">
          <mxGeometry x="565" y="570" width="20" height="20" as="geometry" />
        </mxCell>
        <mxCell id="ZRgWqNr8BsxTpK86CNp5-67" value="" style="endArrow=none;html=1;rounded=0;strokeColor=#16FF56;strokeWidth=2.5;" parent="1" source="ZRgWqNr8BsxTpK86CNp5-70" edge="1">
          <mxGeometry width="50" height="50" relative="1" as="geometry">
            <mxPoint x="-165" y="580" as="sourcePoint" />
            <mxPoint x="515" y="580" as="targetPoint" />
          </mxGeometry>
        </mxCell>
        <mxCell id="ZRgWqNr8BsxTpK86CNp5-69" value="" style="endArrow=none;html=1;rounded=0;strokeColor=#16FF56;strokeWidth=2.5;" parent="1" source="ZRgWqNr8BsxTpK86CNp5-71" target="ZRgWqNr8BsxTpK86CNp5-70" edge="1">
          <mxGeometry width="50" height="50" relative="1" as="geometry">
            <mxPoint x="-165" y="580" as="sourcePoint" />
            <mxPoint x="515" y="580" as="targetPoint" />
          </mxGeometry>
        </mxCell>
        <mxCell id="ZRgWqNr8BsxTpK86CNp5-70" value="" style="shape=waypoint;sketch=0;fillStyle=solid;size=6;pointerEvents=1;points=[];fillColor=none;resizable=0;rotatable=0;perimeter=centerPerimeter;snapToPoint=1;strokeColor=#16FF56;strokeWidth=2.5;" parent="1" vertex="1">
          <mxGeometry x="445" y="570" width="20" height="20" as="geometry" />
        </mxCell>
        <mxCell id="ZRgWqNr8BsxTpK86CNp5-71" value="" style="shape=waypoint;sketch=0;fillStyle=solid;size=6;pointerEvents=1;points=[];fillColor=none;resizable=0;rotatable=0;perimeter=centerPerimeter;snapToPoint=1;strokeColor=#16FF56;strokeWidth=2.5;" parent="1" vertex="1">
          <mxGeometry x="375" y="570" width="20" height="20" as="geometry" />
        </mxCell>
        <mxCell id="ZRgWqNr8BsxTpK86CNp5-76" value="&lt;font style=&quot;font-size: 14px; color: light-dark(rgb(255, 153, 51), rgb(237, 237, 237));&quot;&gt;&lt;b&gt;Switch Network&lt;/b&gt;&lt;/font&gt;" style="text;strokeColor=none;align=center;fillColor=none;html=1;verticalAlign=middle;whiteSpace=wrap;rounded=0;strokeWidth=2.5;" parent="1" vertex="1">
          <mxGeometry x="1005" y="450" width="60" height="30" as="geometry" />
        </mxCell>
        <mxCell id="ZRgWqNr8BsxTpK86CNp5-80" value="&lt;b style=&quot;&quot;&gt;&lt;font style=&quot;color: light-dark(rgb(22, 255, 86), rgb(237, 237, 237));&quot;&gt;&lt;span style=&quot;font-size: 14px;&quot;&gt;V&lt;/span&gt;&lt;span style=&quot;font-size: 11.6667px;&quot;&gt;REF_N&lt;/span&gt;&lt;/font&gt;&lt;/b&gt;" style="text;strokeColor=none;align=center;fillColor=none;html=1;verticalAlign=middle;whiteSpace=wrap;rounded=0;strokeWidth=2.5;" parent="1" vertex="1">
          <mxGeometry x="315" y="580" width="60" height="30" as="geometry" />
        </mxCell>
        <mxCell id="ZRgWqNr8BsxTpK86CNp5-81" value="&lt;b&gt;&lt;font style=&quot;font-size: 14px;&quot;&gt;V&lt;sub style=&quot;&quot;&gt;IN_P&lt;/sub&gt;&lt;/font&gt;&lt;/b&gt;" style="text;strokeColor=none;align=center;fillColor=none;html=1;verticalAlign=middle;whiteSpace=wrap;rounded=0;strokeWidth=2.5;" parent="1" vertex="1">
          <mxGeometry x="70" y="532" width="70" height="25" as="geometry" />
        </mxCell>
        <mxCell id="ZRgWqNr8BsxTpK86CNp5-82" value="&lt;b&gt;&lt;font style=&quot;font-size: 14px; color: light-dark(rgb(19, 62, 236), rgb(237, 237, 237));&quot;&gt;V&lt;sub style=&quot;&quot;&gt;REF_P&lt;/sub&gt;&lt;/font&gt;&lt;/b&gt;" style="text;strokeColor=none;align=center;fillColor=none;html=1;verticalAlign=middle;whiteSpace=wrap;rounded=0;strokeWidth=2.5;" parent="1" vertex="1">
          <mxGeometry x="277.5" y="510" width="60" height="30" as="geometry" />
        </mxCell>
        <mxCell id="ZRgWqNr8BsxTpK86CNp5-83" value="" style="endArrow=none;html=1;rounded=0;strokeColor=#16FF56;strokeWidth=2.5;" parent="1" edge="1">
          <mxGeometry width="50" height="50" relative="1" as="geometry">
            <mxPoint x="345" y="580" as="sourcePoint" />
            <mxPoint x="405" y="580" as="targetPoint" />
          </mxGeometry>
        </mxCell>
        <mxCell id="ZRgWqNr8BsxTpK86CNp5-84" value="" style="html=1;shape=mxgraph.electrical.electro-mechanical.twoWaySwitch;aspect=fixed;elSwitchState=2;rotation=90;strokeWidth=2.5;" parent="1" vertex="1">
          <mxGeometry x="337.5" y="460" width="75" height="26" as="geometry" />
        </mxCell>
        <mxCell id="ZRgWqNr8BsxTpK86CNp5-88" value="" style="shape=waypoint;sketch=0;fillStyle=solid;size=6;pointerEvents=1;points=[];fillColor=none;resizable=0;rotatable=0;perimeter=centerPerimeter;snapToPoint=1;strokeWidth=2.5;" parent="1" vertex="1">
          <mxGeometry x="355" y="550" width="20" height="20" as="geometry" />
        </mxCell>
        <mxCell id="ZRgWqNr8BsxTpK86CNp5-89" value="&lt;font color=&quot;#133eec&quot;&gt;D11&lt;/font&gt;" style="text;strokeColor=none;align=center;fillColor=none;html=1;verticalAlign=middle;whiteSpace=wrap;rounded=0;strokeWidth=2.5;" parent="1" vertex="1">
          <mxGeometry x="385" y="535" width="60" height="30" as="geometry" />
        </mxCell>
        <mxCell id="ZRgWqNr8BsxTpK86CNp5-91" value="&lt;font color=&quot;#133eec&quot;&gt;D7&lt;/font&gt;" style="text;strokeColor=none;align=center;fillColor=none;html=1;verticalAlign=middle;whiteSpace=wrap;rounded=0;strokeWidth=2.5;" parent="1" vertex="1">
          <mxGeometry x="505" y="535" width="60" height="30" as="geometry" />
        </mxCell>
        <mxCell id="ZRgWqNr8BsxTpK86CNp5-92" value="&lt;font color=&quot;#133eec&quot;&gt;D6&lt;/font&gt;" style="text;strokeColor=none;align=center;fillColor=none;html=1;verticalAlign=middle;whiteSpace=wrap;rounded=0;strokeWidth=2.5;" parent="1" vertex="1">
          <mxGeometry x="565" y="535" width="60" height="30" as="geometry" />
        </mxCell>
        <mxCell id="ZRgWqNr8BsxTpK86CNp5-93" value="&lt;font color=&quot;#16ff56&quot;&gt;D11&lt;/font&gt;" style="text;strokeColor=none;align=center;fillColor=none;html=1;verticalAlign=middle;whiteSpace=wrap;rounded=0;strokeWidth=2.5;" parent="1" vertex="1">
          <mxGeometry x="425" y="580" width="60" height="30" as="geometry" />
        </mxCell>
        <mxCell id="ZRgWqNr8BsxTpK86CNp5-95" value="&lt;font color=&quot;#16ff56&quot;&gt;D7&lt;/font&gt;" style="text;strokeColor=none;align=center;fillColor=none;html=1;verticalAlign=middle;whiteSpace=wrap;rounded=0;strokeWidth=2.5;" parent="1" vertex="1">
          <mxGeometry x="545" y="580" width="60" height="30" as="geometry" />
        </mxCell>
        <mxCell id="ZRgWqNr8BsxTpK86CNp5-96" value="&lt;font color=&quot;#16ff56&quot;&gt;D6&lt;/font&gt;" style="text;strokeColor=none;align=center;fillColor=none;html=1;verticalAlign=middle;whiteSpace=wrap;rounded=0;strokeWidth=2.5;" parent="1" vertex="1">
          <mxGeometry x="605" y="580" width="60" height="30" as="geometry" />
        </mxCell>
        <mxCell id="ZRgWqNr8BsxTpK86CNp5-97" value="" style="endArrow=none;html=1;rounded=0;strokeColor=#16FF56;strokeWidth=2.5;" parent="1" edge="1">
          <mxGeometry width="50" height="50" relative="1" as="geometry">
            <mxPoint x="445" y="586" as="sourcePoint" />
            <mxPoint x="464" y="586" as="targetPoint" />
          </mxGeometry>
        </mxCell>
        <mxCell id="ZRgWqNr8BsxTpK86CNp5-99" value="" style="endArrow=none;html=1;rounded=0;strokeColor=#16FF56;strokeWidth=2.5;" parent="1" edge="1">
          <mxGeometry width="50" height="50" relative="1" as="geometry">
            <mxPoint x="567" y="586" as="sourcePoint" />
            <mxPoint x="583" y="586" as="targetPoint" />
          </mxGeometry>
        </mxCell>
        <mxCell id="ZRgWqNr8BsxTpK86CNp5-100" value="" style="endArrow=none;html=1;rounded=0;strokeColor=#16FF56;strokeWidth=2.5;" parent="1" edge="1">
          <mxGeometry width="50" height="50" relative="1" as="geometry">
            <mxPoint x="627" y="586" as="sourcePoint" />
            <mxPoint x="643" y="586" as="targetPoint" />
          </mxGeometry>
        </mxCell>
        <mxCell id="ZRgWqNr8BsxTpK86CNp5-103" value="" style="pointerEvents=1;verticalLabelPosition=bottom;shadow=0;dashed=0;align=center;html=1;verticalAlign=top;shape=mxgraph.electrical.capacitors.capacitor_1;rotation=90;direction=south;strokeWidth=2.5;" parent="1" vertex="1">
          <mxGeometry x="688" y="255" width="30" height="60" as="geometry" />
        </mxCell>
        <mxCell id="ZRgWqNr8BsxTpK86CNp5-104" value="" style="pointerEvents=1;verticalLabelPosition=bottom;shadow=0;dashed=0;align=center;html=1;verticalAlign=top;shape=mxgraph.electrical.capacitors.capacitor_1;rotation=90;strokeWidth=2.5;" parent="1" vertex="1">
          <mxGeometry x="757.5" y="365" width="60" height="30" as="geometry" />
        </mxCell>
        <mxCell id="ZRgWqNr8BsxTpK86CNp5-105" value="" style="pointerEvents=1;verticalLabelPosition=bottom;shadow=0;dashed=0;align=center;html=1;verticalAlign=top;shape=mxgraph.electrical.capacitors.capacitor_1;rotation=90;strokeWidth=2.5;" parent="1" vertex="1">
          <mxGeometry x="877.5" y="365" width="60" height="30" as="geometry" />
        </mxCell>
        <mxCell id="ZRgWqNr8BsxTpK86CNp5-106" value="" style="pointerEvents=1;verticalLabelPosition=bottom;shadow=0;dashed=0;align=center;html=1;verticalAlign=top;shape=mxgraph.electrical.capacitors.capacitor_1;rotation=90;strokeWidth=2.5;" parent="1" vertex="1">
          <mxGeometry x="937.5" y="365" width="60" height="30" as="geometry" />
        </mxCell>
        <mxCell id="ZRgWqNr8BsxTpK86CNp5-107" value="" style="endArrow=none;html=1;rounded=0;exitX=0;exitY=0.5;exitDx=0;exitDy=0;exitPerimeter=0;strokeWidth=2.5;" parent="1" edge="1">
          <mxGeometry width="50" height="50" relative="1" as="geometry">
            <mxPoint x="787.5" y="350" as="sourcePoint" />
            <mxPoint x="787.5" y="285" as="targetPoint" />
          </mxGeometry>
        </mxCell>
        <mxCell id="ZRgWqNr8BsxTpK86CNp5-108" value="" style="endArrow=none;html=1;rounded=0;exitX=0;exitY=0.5;exitDx=0;exitDy=0;exitPerimeter=0;strokeWidth=2.5;" parent="1" edge="1">
          <mxGeometry width="50" height="50" relative="1" as="geometry">
            <mxPoint x="907.5" y="356" as="sourcePoint" />
            <mxPoint x="907.5" y="285" as="targetPoint" />
          </mxGeometry>
        </mxCell>
        <mxCell id="ZRgWqNr8BsxTpK86CNp5-109" value="" style="endArrow=none;html=1;rounded=0;exitX=0;exitY=0.5;exitDx=0;exitDy=0;exitPerimeter=0;strokeWidth=2.5;" parent="1" edge="1">
          <mxGeometry width="50" height="50" relative="1" as="geometry">
            <mxPoint x="967.5" y="355" as="sourcePoint" />
            <mxPoint x="967.5" y="285" as="targetPoint" />
          </mxGeometry>
        </mxCell>
        <mxCell id="ZRgWqNr8BsxTpK86CNp5-110" value="&lt;font style=&quot;font-size: 14px;&quot;&gt;&lt;b&gt;2&lt;sup style=&quot;&quot;&gt;0&lt;/sup&gt;&lt;/b&gt;&lt;/font&gt;&lt;b style=&quot;font-size: 14px;&quot;&gt;C&lt;sub&gt;u&lt;/sub&gt;&lt;/b&gt;" style="text;strokeColor=none;align=center;fillColor=none;html=1;verticalAlign=middle;whiteSpace=wrap;rounded=0;strokeWidth=2.5;" parent="1" vertex="1">
          <mxGeometry x="962.5" y="345" width="60" height="30" as="geometry" />
        </mxCell>
        <mxCell id="ZRgWqNr8BsxTpK86CNp5-111" value="&lt;b style=&quot;forced-color-adjust: none; color: rgb(0, 0, 0); font-family: Helvetica; font-size: 14px; font-style: normal; font-variant-ligatures: normal; font-variant-caps: normal; letter-spacing: normal; orphans: 2; text-align: center; text-indent: 0px; text-transform: none; widows: 2; word-spacing: 0px; -webkit-text-stroke-width: 0px; white-space: normal; background-color: rgb(251, 251, 251); text-decoration-thickness: initial; text-decoration-style: initial; text-decoration-color: initial;&quot;&gt;2&lt;sup&gt;1&lt;/sup&gt;&lt;/b&gt;&lt;b style=&quot;font-size: 14px; text-align: center;&quot;&gt;C&lt;sub&gt;u&lt;/sub&gt;&lt;/b&gt;" style="text;whiteSpace=wrap;html=1;strokeWidth=2.5;" parent="1" vertex="1">
          <mxGeometry x="912.5" y="345" width="60" height="40" as="geometry" />
        </mxCell>
        <mxCell id="ZRgWqNr8BsxTpK86CNp5-112" value="&lt;b style=&quot;font-size: 14px; text-align: center;&quot;&gt;&lt;span style=&quot;background-color: rgb(251, 251, 251);&quot;&gt;2&lt;sup&gt;5&lt;/sup&gt;&lt;/span&gt;C&lt;sub&gt;u&lt;/sub&gt;&lt;/b&gt;" style="text;whiteSpace=wrap;html=1;strokeWidth=2.5;" parent="1" vertex="1">
          <mxGeometry x="792.5" y="345" width="60" height="40" as="geometry" />
        </mxCell>
        <mxCell id="ZRgWqNr8BsxTpK86CNp5-113" value="" style="pointerEvents=1;verticalLabelPosition=bottom;shadow=0;dashed=0;align=center;html=1;verticalAlign=top;shape=mxgraph.electrical.electro-mechanical.selectorSwitch3Position2;elSwitchState=1;rotation=90;strokeWidth=2.5;" parent="1" vertex="1">
          <mxGeometry x="750" y="450" width="75" height="46" as="geometry" />
        </mxCell>
        <mxCell id="ZRgWqNr8BsxTpK86CNp5-114" value="" style="pointerEvents=1;verticalLabelPosition=bottom;shadow=0;dashed=0;align=center;html=1;verticalAlign=top;shape=mxgraph.electrical.electro-mechanical.selectorSwitch3Position2;elSwitchState=1;rotation=90;strokeWidth=2.5;" parent="1" vertex="1">
          <mxGeometry x="870" y="450" width="75" height="46" as="geometry" />
        </mxCell>
        <mxCell id="ZRgWqNr8BsxTpK86CNp5-115" value="" style="pointerEvents=1;verticalLabelPosition=bottom;shadow=0;dashed=0;align=center;html=1;verticalAlign=top;shape=mxgraph.electrical.electro-mechanical.selectorSwitch3Position2;elSwitchState=1;rotation=90;strokeWidth=2.5;" parent="1" vertex="1">
          <mxGeometry x="930" y="450" width="75" height="46" as="geometry" />
        </mxCell>
        <mxCell id="ZRgWqNr8BsxTpK86CNp5-116" value="" style="endArrow=none;html=1;rounded=0;exitX=1;exitY=0.5;exitDx=0;exitDy=0;exitPerimeter=0;strokeWidth=2.5;" parent="1" edge="1">
          <mxGeometry width="50" height="50" relative="1" as="geometry">
            <mxPoint x="787.5" y="410" as="sourcePoint" />
            <mxPoint x="787.5" y="440" as="targetPoint" />
          </mxGeometry>
        </mxCell>
        <mxCell id="ZRgWqNr8BsxTpK86CNp5-117" value="" style="endArrow=none;html=1;rounded=0;exitX=1;exitY=0.5;exitDx=0;exitDy=0;exitPerimeter=0;strokeWidth=2.5;" parent="1" edge="1">
          <mxGeometry width="50" height="50" relative="1" as="geometry">
            <mxPoint x="907.5" y="410" as="sourcePoint" />
            <mxPoint x="907.5" y="440" as="targetPoint" />
          </mxGeometry>
        </mxCell>
        <mxCell id="ZRgWqNr8BsxTpK86CNp5-118" value="" style="endArrow=none;html=1;rounded=0;exitX=1;exitY=0.5;exitDx=0;exitDy=0;exitPerimeter=0;strokeWidth=2.5;" parent="1" edge="1">
          <mxGeometry width="50" height="50" relative="1" as="geometry">
            <mxPoint x="967.5" y="410" as="sourcePoint" />
            <mxPoint x="967.5" y="440" as="targetPoint" />
          </mxGeometry>
        </mxCell>
        <mxCell id="ZRgWqNr8BsxTpK86CNp5-119" value="" style="endArrow=none;html=1;rounded=0;strokeColor=light-dark(#133eec, #ededed);strokeWidth=2.5;" parent="1" source="ZRgWqNr8BsxTpK86CNp5-129" edge="1">
          <mxGeometry width="50" height="50" relative="1" as="geometry">
            <mxPoint x="147.5" y="540" as="sourcePoint" />
            <mxPoint x="947.5" y="540" as="targetPoint" />
          </mxGeometry>
        </mxCell>
        <mxCell id="ZRgWqNr8BsxTpK86CNp5-120" value="" style="endArrow=none;html=1;rounded=0;strokeWidth=2.5;" parent="1" source="ZRgWqNr8BsxTpK86CNp5-134" target="ZRgWqNr8BsxTpK86CNp5-132" edge="1">
          <mxGeometry width="50" height="50" relative="1" as="geometry">
            <mxPoint x="147.5" y="560" as="sourcePoint" />
            <mxPoint x="987.5" y="560" as="targetPoint" />
          </mxGeometry>
        </mxCell>
        <mxCell id="ZRgWqNr8BsxTpK86CNp5-121" value="" style="endArrow=none;html=1;rounded=0;strokeColor=#16FF56;strokeWidth=2.5;" parent="1" source="ZRgWqNr8BsxTpK86CNp5-144" edge="1">
          <mxGeometry width="50" height="50" relative="1" as="geometry">
            <mxPoint x="147.5" y="580" as="sourcePoint" />
            <mxPoint x="987.5" y="580" as="targetPoint" />
          </mxGeometry>
        </mxCell>
        <mxCell id="ZRgWqNr8BsxTpK86CNp5-122" value="" style="endArrow=none;html=1;rounded=0;entryX=0.993;entryY=0.935;entryDx=0;entryDy=0;entryPerimeter=0;strokeWidth=2.5;" parent="1" edge="1">
          <mxGeometry width="50" height="50" relative="1" as="geometry">
            <mxPoint x="767.3" y="540" as="sourcePoint" />
            <mxPoint x="767.30000000001" y="508" as="targetPoint" />
          </mxGeometry>
        </mxCell>
        <mxCell id="ZRgWqNr8BsxTpK86CNp5-123" value="" style="endArrow=none;html=1;rounded=0;entryX=0.993;entryY=0.94;entryDx=0;entryDy=0;entryPerimeter=0;strokeWidth=2.5;" parent="1" target="ZRgWqNr8BsxTpK86CNp5-114" edge="1">
          <mxGeometry width="50" height="50" relative="1" as="geometry">
            <mxPoint x="887.5" y="540" as="sourcePoint" />
            <mxPoint x="887.5" y="470" as="targetPoint" />
          </mxGeometry>
        </mxCell>
        <mxCell id="ZRgWqNr8BsxTpK86CNp5-124" value="" style="endArrow=none;html=1;rounded=0;entryX=0.998;entryY=0.946;entryDx=0;entryDy=0;entryPerimeter=0;strokeWidth=2.5;" parent="1" edge="1">
          <mxGeometry width="50" height="50" relative="1" as="geometry">
            <mxPoint x="947.25" y="540" as="sourcePoint" />
            <mxPoint x="947.25" y="510" as="targetPoint" />
          </mxGeometry>
        </mxCell>
        <mxCell id="ZRgWqNr8BsxTpK86CNp5-125" value="" style="endArrow=none;html=1;rounded=0;strokeColor=light-dark(#133eec, #ededed);exitX=-0.088;exitY=0.331;exitDx=0;exitDy=0;exitPerimeter=0;strokeWidth=2.5;" parent="1" source="ZRgWqNr8BsxTpK86CNp5-45" edge="1">
          <mxGeometry width="50" height="50" relative="1" as="geometry">
            <mxPoint x="767.5" y="540" as="sourcePoint" />
            <mxPoint x="827.5" y="540" as="targetPoint" />
          </mxGeometry>
        </mxCell>
        <mxCell id="ZRgWqNr8BsxTpK86CNp5-126" value="" style="endArrow=none;html=1;rounded=0;strokeColor=light-dark(#133eec, #ededed);strokeWidth=2.5;" parent="1" target="ZRgWqNr8BsxTpK86CNp5-127" edge="1">
          <mxGeometry width="50" height="50" relative="1" as="geometry">
            <mxPoint x="827.5" y="540" as="sourcePoint" />
            <mxPoint x="987.5" y="540" as="targetPoint" />
          </mxGeometry>
        </mxCell>
        <mxCell id="ZRgWqNr8BsxTpK86CNp5-127" value="" style="shape=waypoint;sketch=0;fillStyle=solid;size=6;pointerEvents=1;points=[];fillColor=none;resizable=0;rotatable=0;perimeter=centerPerimeter;snapToPoint=1;strokeColor=light-dark(#133eec, #ededed);strokeWidth=2.5;" parent="1" vertex="1">
          <mxGeometry x="877.5" y="530" width="20" height="20" as="geometry" />
        </mxCell>
        <mxCell id="ZRgWqNr8BsxTpK86CNp5-128" value="" style="endArrow=none;html=1;rounded=0;strokeColor=light-dark(#133eec, #ededed);strokeWidth=2.5;" parent="1" source="ZRgWqNr8BsxTpK86CNp5-127" target="ZRgWqNr8BsxTpK86CNp5-129" edge="1">
          <mxGeometry width="50" height="50" relative="1" as="geometry">
            <mxPoint x="887.5" y="540" as="sourcePoint" />
            <mxPoint x="987.5" y="540" as="targetPoint" />
          </mxGeometry>
        </mxCell>
        <mxCell id="ZRgWqNr8BsxTpK86CNp5-129" value="" style="shape=waypoint;sketch=0;fillStyle=solid;size=6;pointerEvents=1;points=[];fillColor=none;resizable=0;rotatable=0;perimeter=centerPerimeter;snapToPoint=1;strokeColor=light-dark(#133eec, #ededed);strokeWidth=2.5;" parent="1" vertex="1">
          <mxGeometry x="937.5" y="530" width="20" height="20" as="geometry" />
        </mxCell>
        <mxCell id="ZRgWqNr8BsxTpK86CNp5-130" value="" style="endArrow=none;html=1;rounded=0;entryX=0.993;entryY=0.5;entryDx=0;entryDy=0;entryPerimeter=0;strokeWidth=2.5;" parent="1" target="ZRgWqNr8BsxTpK86CNp5-115" edge="1">
          <mxGeometry width="50" height="50" relative="1" as="geometry">
            <mxPoint x="967.5" y="560" as="sourcePoint" />
            <mxPoint x="867.5" y="470" as="targetPoint" />
          </mxGeometry>
        </mxCell>
        <mxCell id="ZRgWqNr8BsxTpK86CNp5-131" value="" style="endArrow=none;html=1;rounded=0;entryX=0.993;entryY=0.5;entryDx=0;entryDy=0;entryPerimeter=0;strokeWidth=2.5;" parent="1" target="ZRgWqNr8BsxTpK86CNp5-114" edge="1">
          <mxGeometry width="50" height="50" relative="1" as="geometry">
            <mxPoint x="907.5" y="560" as="sourcePoint" />
            <mxPoint x="937.5" y="490" as="targetPoint" />
          </mxGeometry>
        </mxCell>
        <mxCell id="ZRgWqNr8BsxTpK86CNp5-132" value="" style="shape=waypoint;sketch=0;fillStyle=solid;size=6;pointerEvents=1;points=[];fillColor=none;resizable=0;rotatable=0;perimeter=centerPerimeter;snapToPoint=1;strokeWidth=2.5;" parent="1" vertex="1">
          <mxGeometry x="957.5" y="550" width="20" height="20" as="geometry" />
        </mxCell>
        <mxCell id="ZRgWqNr8BsxTpK86CNp5-133" value="" style="endArrow=none;html=1;rounded=0;strokeWidth=2.5;" parent="1" target="ZRgWqNr8BsxTpK86CNp5-134" edge="1">
          <mxGeometry width="50" height="50" relative="1" as="geometry">
            <mxPoint x="847.5" y="560" as="sourcePoint" />
            <mxPoint x="987.5" y="560" as="targetPoint" />
          </mxGeometry>
        </mxCell>
        <mxCell id="ZRgWqNr8BsxTpK86CNp5-134" value="" style="shape=waypoint;sketch=0;fillStyle=solid;size=6;pointerEvents=1;points=[];fillColor=none;resizable=0;rotatable=0;perimeter=centerPerimeter;snapToPoint=1;strokeWidth=2.5;" parent="1" vertex="1">
          <mxGeometry x="897.5" y="550" width="20" height="20" as="geometry" />
        </mxCell>
        <mxCell id="ZRgWqNr8BsxTpK86CNp5-135" value="" style="endArrow=none;html=1;rounded=0;exitX=0.75;exitY=0.833;exitDx=0;exitDy=0;exitPerimeter=0;strokeWidth=2.5;" parent="1" source="ZRgWqNr8BsxTpK86CNp5-92" edge="1">
          <mxGeometry width="50" height="50" relative="1" as="geometry">
            <mxPoint x="650" y="560" as="sourcePoint" />
            <mxPoint x="847.5" y="560" as="targetPoint" />
          </mxGeometry>
        </mxCell>
        <mxCell id="ZRgWqNr8BsxTpK86CNp5-136" value="" style="endArrow=none;html=1;rounded=0;entryX=0.993;entryY=0.5;entryDx=0;entryDy=0;entryPerimeter=0;strokeWidth=2.5;" parent="1" target="ZRgWqNr8BsxTpK86CNp5-113" edge="1">
          <mxGeometry width="50" height="50" relative="1" as="geometry">
            <mxPoint x="787.5" y="560" as="sourcePoint" />
            <mxPoint x="777.5" y="470" as="targetPoint" />
          </mxGeometry>
        </mxCell>
        <mxCell id="ZRgWqNr8BsxTpK86CNp5-137" value="" style="shape=waypoint;sketch=0;fillStyle=solid;size=6;pointerEvents=1;points=[];fillColor=none;resizable=0;rotatable=0;perimeter=centerPerimeter;snapToPoint=1;strokeWidth=2.5;" parent="1" vertex="1">
          <mxGeometry x="777.5" y="550" width="20" height="20" as="geometry" />
        </mxCell>
        <mxCell id="ZRgWqNr8BsxTpK86CNp5-138" value="" style="endArrow=none;html=1;rounded=0;entryX=0.999;entryY=0.052;entryDx=0;entryDy=0;entryPerimeter=0;strokeWidth=2.5;" parent="1" edge="1">
          <mxGeometry width="50" height="50" relative="1" as="geometry">
            <mxPoint x="807.75" y="579.5799999999999" as="sourcePoint" />
            <mxPoint x="807.75" y="510.0049999999999" as="targetPoint" />
          </mxGeometry>
        </mxCell>
        <mxCell id="ZRgWqNr8BsxTpK86CNp5-139" value="" style="endArrow=none;html=1;rounded=0;entryX=0.999;entryY=0.052;entryDx=0;entryDy=0;entryPerimeter=0;strokeWidth=2.5;" parent="1" edge="1">
          <mxGeometry width="50" height="50" relative="1" as="geometry">
            <mxPoint x="927.75" y="579.5799999999999" as="sourcePoint" />
            <mxPoint x="927.75" y="510.0049999999999" as="targetPoint" />
          </mxGeometry>
        </mxCell>
        <mxCell id="ZRgWqNr8BsxTpK86CNp5-140" value="" style="endArrow=none;html=1;rounded=0;entryX=0.999;entryY=0.052;entryDx=0;entryDy=0;entryPerimeter=0;strokeWidth=2.5;" parent="1" source="ZRgWqNr8BsxTpK86CNp5-142" edge="1">
          <mxGeometry width="50" height="50" relative="1" as="geometry">
            <mxPoint x="987.75" y="580" as="sourcePoint" />
            <mxPoint x="987.75" y="510.0049999999999" as="targetPoint" />
          </mxGeometry>
        </mxCell>
        <mxCell id="ZRgWqNr8BsxTpK86CNp5-141" value="" style="endArrow=none;html=1;rounded=0;entryDx=0;entryDy=0;entryPerimeter=0;strokeColor=#16FF56;strokeWidth=2.5;" parent="1" target="ZRgWqNr8BsxTpK86CNp5-142" edge="1">
          <mxGeometry width="50" height="50" relative="1" as="geometry">
            <mxPoint x="987.75" y="580" as="sourcePoint" />
            <mxPoint x="987.75" y="510.0049999999999" as="targetPoint" />
          </mxGeometry>
        </mxCell>
        <mxCell id="ZRgWqNr8BsxTpK86CNp5-142" value="" style="shape=waypoint;sketch=0;fillStyle=solid;size=6;pointerEvents=1;points=[];fillColor=none;resizable=0;rotatable=0;perimeter=centerPerimeter;snapToPoint=1;strokeColor=#16FF56;strokeWidth=2.5;" parent="1" vertex="1">
          <mxGeometry x="977.5" y="570" width="20" height="20" as="geometry" />
        </mxCell>
        <mxCell id="ZRgWqNr8BsxTpK86CNp5-143" value="" style="endArrow=none;html=1;rounded=0;strokeColor=#16FF56;strokeWidth=2.5;" parent="1" target="ZRgWqNr8BsxTpK86CNp5-144" edge="1">
          <mxGeometry width="50" height="50" relative="1" as="geometry">
            <mxPoint x="867.5" y="580" as="sourcePoint" />
            <mxPoint x="987.5" y="580" as="targetPoint" />
          </mxGeometry>
        </mxCell>
        <mxCell id="ZRgWqNr8BsxTpK86CNp5-144" value="" style="shape=waypoint;sketch=0;fillStyle=solid;size=6;pointerEvents=1;points=[];fillColor=none;resizable=0;rotatable=0;perimeter=centerPerimeter;snapToPoint=1;gradientColor=none;strokeColor=#16FF56;strokeWidth=2.5;" parent="1" vertex="1">
          <mxGeometry x="917.5" y="570" width="20" height="20" as="geometry" />
        </mxCell>
        <mxCell id="ZRgWqNr8BsxTpK86CNp5-145" value="" style="endArrow=none;html=1;rounded=0;strokeColor=#16FF56;exitX=0.5;exitY=0;exitDx=0;exitDy=0;strokeWidth=2.5;" parent="1" source="ZRgWqNr8BsxTpK86CNp5-96" edge="1">
          <mxGeometry width="50" height="50" relative="1" as="geometry">
            <mxPoint x="187.5" y="580" as="sourcePoint" />
            <mxPoint x="867.5" y="580" as="targetPoint" />
          </mxGeometry>
        </mxCell>
        <mxCell id="ZRgWqNr8BsxTpK86CNp5-146" value="" style="shape=waypoint;sketch=0;fillStyle=solid;size=6;pointerEvents=1;points=[];fillColor=none;resizable=0;rotatable=0;perimeter=centerPerimeter;snapToPoint=1;strokeColor=#16FF56;strokeWidth=2.5;" parent="1" vertex="1">
          <mxGeometry x="797.5" y="570" width="20" height="20" as="geometry" />
        </mxCell>
        <mxCell id="ZRgWqNr8BsxTpK86CNp5-151" value="&lt;font style=&quot;color: light-dark(rgb(19, 62, 236), rgb(237, 237, 237));&quot;&gt;D1&lt;/font&gt;" style="text;strokeColor=none;align=center;fillColor=none;html=1;verticalAlign=middle;whiteSpace=wrap;rounded=0;strokeWidth=2.5;" parent="1" vertex="1">
          <mxGeometry x="857.5" y="535" width="60" height="30" as="geometry" />
        </mxCell>
        <mxCell id="ZRgWqNr8BsxTpK86CNp5-152" value="&lt;font style=&quot;color: light-dark(rgb(19, 62, 236), rgb(237, 237, 237));&quot;&gt;D0&lt;/font&gt;" style="text;strokeColor=none;align=center;fillColor=none;html=1;verticalAlign=middle;whiteSpace=wrap;rounded=0;strokeWidth=2.5;" parent="1" vertex="1">
          <mxGeometry x="917.5" y="535" width="60" height="30" as="geometry" />
        </mxCell>
        <mxCell id="ZRgWqNr8BsxTpK86CNp5-153" value="&lt;font color=&quot;#16ff56&quot;&gt;D5&lt;/font&gt;" style="text;strokeColor=none;align=center;fillColor=none;html=1;verticalAlign=middle;whiteSpace=wrap;rounded=0;strokeWidth=2.5;" parent="1" vertex="1">
          <mxGeometry x="777.5" y="580" width="60" height="30" as="geometry" />
        </mxCell>
        <mxCell id="ZRgWqNr8BsxTpK86CNp5-154" value="&lt;font style=&quot;color: rgb(22, 255, 86);&quot;&gt;D1&lt;/font&gt;" style="text;strokeColor=none;align=center;fillColor=none;html=1;verticalAlign=middle;whiteSpace=wrap;rounded=0;strokeWidth=2.5;" parent="1" vertex="1">
          <mxGeometry x="897.5" y="580" width="60" height="30" as="geometry" />
        </mxCell>
        <mxCell id="ZRgWqNr8BsxTpK86CNp5-155" value="&lt;font style=&quot;color: rgb(22, 255, 86);&quot;&gt;D0&lt;/font&gt;" style="text;strokeColor=none;align=center;fillColor=none;html=1;verticalAlign=middle;whiteSpace=wrap;rounded=0;strokeWidth=2.5;" parent="1" vertex="1">
          <mxGeometry x="957.5" y="580" width="60" height="30" as="geometry" />
        </mxCell>
        <mxCell id="ZRgWqNr8BsxTpK86CNp5-156" value="" style="endArrow=none;html=1;rounded=0;strokeColor=#16FF56;strokeWidth=2.5;" parent="1" edge="1">
          <mxGeometry width="50" height="50" relative="1" as="geometry">
            <mxPoint x="799.5" y="586" as="sourcePoint" />
            <mxPoint x="815.5" y="586" as="targetPoint" />
          </mxGeometry>
        </mxCell>
        <mxCell id="ZRgWqNr8BsxTpK86CNp5-157" value="" style="endArrow=none;html=1;rounded=0;strokeColor=#16FF56;strokeWidth=2.5;" parent="1" edge="1">
          <mxGeometry width="50" height="50" relative="1" as="geometry">
            <mxPoint x="919.5" y="586" as="sourcePoint" />
            <mxPoint x="935.5" y="586" as="targetPoint" />
          </mxGeometry>
        </mxCell>
        <mxCell id="ZRgWqNr8BsxTpK86CNp5-158" value="" style="endArrow=none;html=1;rounded=0;strokeColor=#16FF56;strokeWidth=2.5;" parent="1" edge="1">
          <mxGeometry width="50" height="50" relative="1" as="geometry">
            <mxPoint x="979.5" y="586" as="sourcePoint" />
            <mxPoint x="995.5" y="586" as="targetPoint" />
          </mxGeometry>
        </mxCell>
        <mxCell id="ZRgWqNr8BsxTpK86CNp5-159" value="" style="endArrow=none;html=1;rounded=0;strokeWidth=2.5;" parent="1" edge="1">
          <mxGeometry width="50" height="50" relative="1" as="geometry">
            <mxPoint x="727.5" y="285" as="sourcePoint" />
            <mxPoint x="1050" y="285" as="targetPoint" />
          </mxGeometry>
        </mxCell>
        <mxCell id="ZRgWqNr8BsxTpK86CNp5-160" value="" style="shape=waypoint;sketch=0;fillStyle=solid;size=6;pointerEvents=1;points=[];fillColor=none;resizable=0;rotatable=0;perimeter=centerPerimeter;snapToPoint=1;strokeColor=light-dark(#133eec, #ededed);strokeWidth=2.5;" parent="1" vertex="1">
          <mxGeometry x="757.5" y="530" width="20" height="20" as="geometry" />
        </mxCell>
        <mxCell id="ZRgWqNr8BsxTpK86CNp5-161" value="&lt;font color=&quot;#133eec&quot;&gt;D5&lt;/font&gt;" style="text;strokeColor=none;align=center;fillColor=none;html=1;verticalAlign=middle;whiteSpace=wrap;rounded=0;strokeWidth=2.5;" parent="1" vertex="1">
          <mxGeometry x="737.5" y="535" width="60" height="30" as="geometry" />
        </mxCell>
        <mxCell id="ZRgWqNr8BsxTpK86CNp5-162" value="" style="html=1;shape=mxgraph.electrical.electro-mechanical.singleSwitch;aspect=fixed;elSwitchState=off;strokeWidth=2.5;" parent="1" vertex="1">
          <mxGeometry x="131" y="532" width="131.27" height="35" as="geometry" />
        </mxCell>
        <mxCell id="ZRgWqNr8BsxTpK86CNp5-163" value="" style="pointerEvents=1;verticalLabelPosition=bottom;shadow=0;dashed=0;align=center;html=1;verticalAlign=top;shape=mxgraph.electrical.capacitors.capacitor_1;rotation=90;strokeWidth=2.5;" parent="1" vertex="1">
          <mxGeometry x="346.25" y="90" width="60" height="30" as="geometry" />
        </mxCell>
        <mxCell id="ZRgWqNr8BsxTpK86CNp5-164" value="" style="pointerEvents=1;verticalLabelPosition=bottom;shadow=0;dashed=0;align=center;html=1;verticalAlign=top;shape=mxgraph.electrical.capacitors.capacitor_1;rotation=90;strokeWidth=2.5;" parent="1" vertex="1">
          <mxGeometry x="406.25" y="90" width="60" height="30" as="geometry" />
        </mxCell>
        <mxCell id="ZRgWqNr8BsxTpK86CNp5-165" value="" style="pointerEvents=1;verticalLabelPosition=bottom;shadow=0;dashed=0;align=center;html=1;verticalAlign=top;shape=mxgraph.electrical.capacitors.capacitor_1;rotation=90;strokeWidth=2.5;" parent="1" vertex="1">
          <mxGeometry x="526.25" y="90" width="60" height="30" as="geometry" />
        </mxCell>
        <mxCell id="ZRgWqNr8BsxTpK86CNp5-166" value="" style="pointerEvents=1;verticalLabelPosition=bottom;shadow=0;dashed=0;align=center;html=1;verticalAlign=top;shape=mxgraph.electrical.capacitors.capacitor_1;rotation=90;strokeWidth=2.5;" parent="1" vertex="1">
          <mxGeometry x="586.25" y="90" width="60" height="30" as="geometry" />
        </mxCell>
        <mxCell id="ZRgWqNr8BsxTpK86CNp5-167" value="" style="endArrow=none;html=1;rounded=0;strokeWidth=2.5;" parent="1" edge="1">
          <mxGeometry width="50" height="50" relative="1" as="geometry">
            <mxPoint x="375.75" y="196" as="sourcePoint" />
            <mxPoint x="676.25" y="196" as="targetPoint" />
          </mxGeometry>
        </mxCell>
        <mxCell id="ZRgWqNr8BsxTpK86CNp5-172" value="&lt;font style=&quot;font-size: 14px;&quot;&gt;&lt;b&gt;2&lt;sup style=&quot;&quot;&gt;0&lt;/sup&gt;&lt;/b&gt;&lt;/font&gt;&lt;b style=&quot;font-size: 14px;&quot;&gt;C&lt;sub&gt;u&lt;/sub&gt;&lt;/b&gt;" style="text;strokeColor=none;align=center;fillColor=none;html=1;verticalAlign=middle;whiteSpace=wrap;rounded=0;strokeWidth=2.5;" parent="1" vertex="1">
          <mxGeometry x="620" y="70" width="60" height="30" as="geometry" />
        </mxCell>
        <mxCell id="ZRgWqNr8BsxTpK86CNp5-173" value="&lt;b style=&quot;forced-color-adjust: none; color: rgb(0, 0, 0); font-family: Helvetica; font-size: 14px; font-style: normal; font-variant-ligatures: normal; font-variant-caps: normal; letter-spacing: normal; orphans: 2; text-align: center; text-indent: 0px; text-transform: none; widows: 2; word-spacing: 0px; -webkit-text-stroke-width: 0px; white-space: normal; background-color: rgb(251, 251, 251); text-decoration-thickness: initial; text-decoration-style: initial; text-decoration-color: initial;&quot;&gt;2&lt;sup&gt;1&lt;/sup&gt;&lt;/b&gt;&lt;b style=&quot;font-size: 14px; text-align: center;&quot;&gt;C&lt;sub&gt;u&lt;/sub&gt;&lt;/b&gt;" style="text;whiteSpace=wrap;html=1;strokeWidth=2.5;" parent="1" vertex="1">
          <mxGeometry x="560" y="65" width="60" height="40" as="geometry" />
        </mxCell>
        <mxCell id="ZRgWqNr8BsxTpK86CNp5-174" value="&lt;b style=&quot;font-size: 14px; text-align: center;&quot;&gt;&lt;span style=&quot;background-color: rgb(251, 251, 251);&quot;&gt;2&lt;sup&gt;5&lt;/sup&gt;&lt;/span&gt;C&lt;sub&gt;u&lt;/sub&gt;&lt;/b&gt;" style="text;whiteSpace=wrap;html=1;strokeWidth=2.5;" parent="1" vertex="1">
          <mxGeometry x="441.25" y="70" width="60" height="40" as="geometry" />
        </mxCell>
        <mxCell id="ZRgWqNr8BsxTpK86CNp5-175" value="&lt;div style=&quot;text-align: center;&quot;&gt;&lt;span style=&quot;font-size: 14px; background-color: rgb(251, 251, 251);&quot;&gt;&lt;b&gt;C&lt;sub&gt;u&lt;/sub&gt;&lt;/b&gt;&lt;/span&gt;&lt;/div&gt;" style="text;whiteSpace=wrap;html=1;strokeWidth=2.5;" parent="1" vertex="1">
          <mxGeometry x="381.25" y="70" width="45" height="35" as="geometry" />
        </mxCell>
        <mxCell id="ZRgWqNr8BsxTpK86CNp5-176" value="" style="pointerEvents=1;verticalLabelPosition=bottom;shadow=0;dashed=0;align=center;html=1;verticalAlign=top;shape=mxgraph.electrical.electro-mechanical.selectorSwitch3Position2;elSwitchState=1;rotation=90;direction=west;strokeWidth=2.5;" parent="1" vertex="1">
          <mxGeometry x="398.75" y="-10" width="75" height="46" as="geometry" />
        </mxCell>
        <mxCell id="ZRgWqNr8BsxTpK86CNp5-177" value="" style="pointerEvents=1;verticalLabelPosition=bottom;shadow=0;dashed=0;align=center;html=1;verticalAlign=top;shape=mxgraph.electrical.electro-mechanical.selectorSwitch3Position2;elSwitchState=1;rotation=90;direction=west;strokeWidth=2.5;" parent="1" vertex="1">
          <mxGeometry x="518.75" y="-10" width="75" height="46" as="geometry" />
        </mxCell>
        <mxCell id="ZRgWqNr8BsxTpK86CNp5-178" value="" style="pointerEvents=1;verticalLabelPosition=bottom;shadow=0;dashed=0;align=center;html=1;verticalAlign=top;shape=mxgraph.electrical.electro-mechanical.selectorSwitch3Position2;elSwitchState=1;rotation=90;direction=west;strokeWidth=2.5;" parent="1" vertex="1">
          <mxGeometry x="578.75" y="-10" width="75" height="46" as="geometry" />
        </mxCell>
        <mxCell id="ZRgWqNr8BsxTpK86CNp5-183" value="" style="endArrow=none;html=1;rounded=0;strokeColor=light-dark(#133eec, #ededed);strokeWidth=2.5;" parent="1" source="ZRgWqNr8BsxTpK86CNp5-197" edge="1">
          <mxGeometry width="50" height="50" relative="1" as="geometry">
            <mxPoint x="-203.75" y="-56" as="sourcePoint" />
            <mxPoint x="596.25" y="-56" as="targetPoint" />
          </mxGeometry>
        </mxCell>
        <mxCell id="ZRgWqNr8BsxTpK86CNp5-184" value="" style="endArrow=none;html=1;rounded=0;strokeWidth=2.5;" parent="1" edge="1">
          <mxGeometry width="50" height="50" relative="1" as="geometry">
            <mxPoint x="555" y="-80" as="sourcePoint" />
            <mxPoint x="615" y="-80" as="targetPoint" />
          </mxGeometry>
        </mxCell>
        <mxCell id="ZRgWqNr8BsxTpK86CNp5-185" value="" style="endArrow=none;html=1;rounded=0;strokeColor=#16FF56;strokeWidth=2.5;" parent="1" source="ZRgWqNr8BsxTpK86CNp5-215" edge="1">
          <mxGeometry width="50" height="50" relative="1" as="geometry">
            <mxPoint x="-205" y="-101" as="sourcePoint" />
            <mxPoint x="635" y="-101" as="targetPoint" />
          </mxGeometry>
        </mxCell>
        <mxCell id="ZRgWqNr8BsxTpK86CNp5-186" value="" style="endArrow=none;html=1;rounded=0;exitX=1;exitY=0.12;exitDx=0;exitDy=0;strokeWidth=2.5;" parent="1" source="ZRgWqNr8BsxTpK86CNp5-228" edge="1">
          <mxGeometry width="50" height="50" relative="1" as="geometry">
            <mxPoint x="367" y="-31" as="sourcePoint" />
            <mxPoint x="366.65" y="-80" as="targetPoint" />
          </mxGeometry>
        </mxCell>
        <mxCell id="ZRgWqNr8BsxTpK86CNp5-187" value="" style="endArrow=none;html=1;rounded=0;entryX=0.993;entryY=0.935;entryDx=0;entryDy=0;entryPerimeter=0;strokeWidth=2.5;" parent="1" edge="1">
          <mxGeometry width="50" height="50" relative="1" as="geometry">
            <mxPoint x="416" y="-24" as="sourcePoint" />
            <mxPoint x="416" y="-56" as="targetPoint" />
          </mxGeometry>
        </mxCell>
        <mxCell id="ZRgWqNr8BsxTpK86CNp5-189" value="" style="endArrow=none;html=1;rounded=0;entryX=0.998;entryY=0.946;entryDx=0;entryDy=0;entryPerimeter=0;strokeWidth=2.5;" parent="1" edge="1">
          <mxGeometry width="50" height="50" relative="1" as="geometry">
            <mxPoint x="596" y="-24" as="sourcePoint" />
            <mxPoint x="596" y="-55" as="targetPoint" />
          </mxGeometry>
        </mxCell>
        <mxCell id="ZRgWqNr8BsxTpK86CNp5-190" value="" style="endArrow=none;html=1;rounded=0;strokeColor=light-dark(#133eec, #ededed);exitX=0.25;exitY=0;exitDx=0;exitDy=0;strokeWidth=2.5;" parent="1" source="ZRgWqNr8BsxTpK86CNp5-226" edge="1">
          <mxGeometry width="50" height="50" relative="1" as="geometry">
            <mxPoint x="247.5" y="-56" as="sourcePoint" />
            <mxPoint x="317.5" y="-56" as="targetPoint" />
          </mxGeometry>
        </mxCell>
        <mxCell id="ZRgWqNr8BsxTpK86CNp5-191" value="" style="endArrow=none;html=1;rounded=0;strokeColor=light-dark(#133eec, #ededed);exitX=0.75;exitY=0;exitDx=0;exitDy=0;strokeWidth=2.5;" parent="1" source="ZRgWqNr8BsxTpK86CNp5-226" target="ZRgWqNr8BsxTpK86CNp5-192" edge="1">
          <mxGeometry width="50" height="50" relative="1" as="geometry">
            <mxPoint x="317.5" y="-56" as="sourcePoint" />
            <mxPoint x="587.5" y="-56" as="targetPoint" />
          </mxGeometry>
        </mxCell>
        <mxCell id="ZRgWqNr8BsxTpK86CNp5-192" value="" style="shape=waypoint;sketch=0;fillStyle=solid;size=6;pointerEvents=1;points=[];fillColor=none;resizable=0;rotatable=0;perimeter=centerPerimeter;snapToPoint=1;strokeColor=light-dark(#133eec, #ededed);strokeWidth=2.5;" parent="1" vertex="1">
          <mxGeometry x="406.25" y="-66" width="20" height="20" as="geometry" />
        </mxCell>
        <mxCell id="ZRgWqNr8BsxTpK86CNp5-193" value="" style="endArrow=none;html=1;rounded=0;strokeColor=light-dark(#133eec, #ededed);strokeWidth=2.5;" parent="1" source="ZRgWqNr8BsxTpK86CNp5-192" edge="1">
          <mxGeometry width="50" height="50" relative="1" as="geometry">
            <mxPoint x="367.5" y="-56" as="sourcePoint" />
            <mxPoint x="427.5" y="-56" as="targetPoint" />
          </mxGeometry>
        </mxCell>
        <mxCell id="ZRgWqNr8BsxTpK86CNp5-194" value="" style="endArrow=none;html=1;rounded=0;strokeColor=light-dark(#133eec, #ededed);strokeWidth=2.5;" parent="1" target="ZRgWqNr8BsxTpK86CNp5-195" edge="1">
          <mxGeometry width="50" height="50" relative="1" as="geometry">
            <mxPoint x="427.5" y="-56" as="sourcePoint" />
            <mxPoint x="587.5" y="-56" as="targetPoint" />
          </mxGeometry>
        </mxCell>
        <mxCell id="ZRgWqNr8BsxTpK86CNp5-195" value="" style="shape=waypoint;sketch=0;fillStyle=solid;size=6;pointerEvents=1;points=[];fillColor=none;resizable=0;rotatable=0;perimeter=centerPerimeter;snapToPoint=1;strokeColor=light-dark(#133eec, #ededed);strokeWidth=2.5;" parent="1" vertex="1">
          <mxGeometry x="526.25" y="-66" width="20" height="20" as="geometry" />
        </mxCell>
        <mxCell id="ZRgWqNr8BsxTpK86CNp5-196" value="" style="endArrow=none;html=1;rounded=0;strokeColor=light-dark(#133eec, #ededed);strokeWidth=2.5;" parent="1" source="ZRgWqNr8BsxTpK86CNp5-195" target="ZRgWqNr8BsxTpK86CNp5-197" edge="1">
          <mxGeometry width="50" height="50" relative="1" as="geometry">
            <mxPoint x="487.5" y="-56" as="sourcePoint" />
            <mxPoint x="587.5" y="-56" as="targetPoint" />
          </mxGeometry>
        </mxCell>
        <mxCell id="ZRgWqNr8BsxTpK86CNp5-197" value="" style="shape=waypoint;sketch=0;fillStyle=solid;size=6;pointerEvents=1;points=[];fillColor=none;resizable=0;rotatable=0;perimeter=centerPerimeter;snapToPoint=1;strokeColor=light-dark(#133eec, #ededed);strokeWidth=2.5;" parent="1" vertex="1">
          <mxGeometry x="586.25" y="-66" width="20" height="20" as="geometry" />
        </mxCell>
        <mxCell id="ZRgWqNr8BsxTpK86CNp5-201" value="" style="endArrow=none;html=1;rounded=0;strokeWidth=2.5;" parent="1" edge="1">
          <mxGeometry width="50" height="50" relative="1" as="geometry">
            <mxPoint x="495" y="-80" as="sourcePoint" />
            <mxPoint x="555" y="-80" as="targetPoint" />
          </mxGeometry>
        </mxCell>
        <mxCell id="ZRgWqNr8BsxTpK86CNp5-202" value="" style="shape=waypoint;sketch=0;fillStyle=solid;size=6;pointerEvents=1;points=[];fillColor=none;resizable=0;rotatable=0;perimeter=centerPerimeter;snapToPoint=1;strokeWidth=2.5;" parent="1" vertex="1">
          <mxGeometry x="546.25" y="-90" width="20" height="20" as="geometry" />
        </mxCell>
        <mxCell id="ZRgWqNr8BsxTpK86CNp5-203" value="" style="endArrow=none;html=1;rounded=0;strokeWidth=2.5;" parent="1" edge="1">
          <mxGeometry width="50" height="50" relative="1" as="geometry">
            <mxPoint x="435" y="-80" as="sourcePoint" />
            <mxPoint x="495" y="-80" as="targetPoint" />
          </mxGeometry>
        </mxCell>
        <mxCell id="ZRgWqNr8BsxTpK86CNp5-205" value="" style="endArrow=none;html=1;rounded=0;strokeWidth=2.5;" parent="1" edge="1">
          <mxGeometry width="50" height="50" relative="1" as="geometry">
            <mxPoint x="375" y="-80" as="sourcePoint" />
            <mxPoint x="435" y="-80" as="targetPoint" />
          </mxGeometry>
        </mxCell>
        <mxCell id="ZRgWqNr8BsxTpK86CNp5-206" value="" style="shape=waypoint;sketch=0;fillStyle=solid;size=6;pointerEvents=1;points=[];fillColor=none;resizable=0;rotatable=0;perimeter=centerPerimeter;snapToPoint=1;strokeWidth=2.5;" parent="1" vertex="1">
          <mxGeometry x="426.25" y="-90" width="20" height="20" as="geometry" />
        </mxCell>
        <mxCell id="ZRgWqNr8BsxTpK86CNp5-207" value="" style="endArrow=none;html=1;rounded=0;strokeWidth=2.5;" parent="1" edge="1">
          <mxGeometry width="50" height="50" relative="1" as="geometry">
            <mxPoint x="260" y="-80" as="sourcePoint" />
            <mxPoint x="375" y="-80" as="targetPoint" />
          </mxGeometry>
        </mxCell>
        <mxCell id="ZRgWqNr8BsxTpK86CNp5-208" value="" style="endArrow=none;html=1;rounded=0;entryX=0.999;entryY=0.052;entryDx=0;entryDy=0;entryPerimeter=0;strokeWidth=2.5;" parent="1" edge="1">
          <mxGeometry width="50" height="50" relative="1" as="geometry">
            <mxPoint x="386.1" y="-24" as="sourcePoint" />
            <mxPoint x="386.1" y="-101" as="targetPoint" />
          </mxGeometry>
        </mxCell>
        <mxCell id="ZRgWqNr8BsxTpK86CNp5-209" value="" style="endArrow=none;html=1;rounded=0;entryX=0.999;entryY=0.052;entryDx=0;entryDy=0;entryPerimeter=0;strokeWidth=2.5;" parent="1" edge="1">
          <mxGeometry width="50" height="50" relative="1" as="geometry">
            <mxPoint x="456.5" y="-22" as="sourcePoint" />
            <mxPoint x="456.5" y="-101" as="targetPoint" />
          </mxGeometry>
        </mxCell>
        <mxCell id="ZRgWqNr8BsxTpK86CNp5-210" value="" style="endArrow=none;html=1;rounded=0;entryX=0.999;entryY=0.052;entryDx=0;entryDy=0;entryPerimeter=0;strokeWidth=2.5;" parent="1" edge="1">
          <mxGeometry width="50" height="50" relative="1" as="geometry">
            <mxPoint x="576.5" y="-21.420000000000073" as="sourcePoint" />
            <mxPoint x="576.5" y="-101" as="targetPoint" />
          </mxGeometry>
        </mxCell>
        <mxCell id="ZRgWqNr8BsxTpK86CNp5-211" value="" style="endArrow=none;html=1;rounded=0;strokeWidth=2.5;" parent="1" source="ZRgWqNr8BsxTpK86CNp5-213" edge="1">
          <mxGeometry width="50" height="50" relative="1" as="geometry">
            <mxPoint x="636.5" y="-101" as="sourcePoint" />
            <mxPoint x="636.5" y="-23" as="targetPoint" />
          </mxGeometry>
        </mxCell>
        <mxCell id="ZRgWqNr8BsxTpK86CNp5-212" value="" style="endArrow=none;html=1;rounded=0;strokeColor=#16FF56;strokeWidth=2.5;" parent="1" target="ZRgWqNr8BsxTpK86CNp5-213" edge="1">
          <mxGeometry width="50" height="50" relative="1" as="geometry">
            <mxPoint x="635.25" y="-101" as="sourcePoint" />
            <mxPoint x="635.25" y="-170.99500000000012" as="targetPoint" />
          </mxGeometry>
        </mxCell>
        <mxCell id="ZRgWqNr8BsxTpK86CNp5-214" value="" style="endArrow=none;html=1;rounded=0;strokeColor=#16FF56;strokeWidth=2.5;" parent="1" target="ZRgWqNr8BsxTpK86CNp5-215" edge="1">
          <mxGeometry width="50" height="50" relative="1" as="geometry">
            <mxPoint x="515" y="-101" as="sourcePoint" />
            <mxPoint x="635" y="-101" as="targetPoint" />
          </mxGeometry>
        </mxCell>
        <mxCell id="ZRgWqNr8BsxTpK86CNp5-215" value="" style="shape=waypoint;sketch=0;fillStyle=solid;size=6;pointerEvents=1;points=[];fillColor=none;resizable=0;rotatable=0;perimeter=centerPerimeter;snapToPoint=1;gradientColor=none;strokeColor=#16FF56;strokeWidth=2.5;" parent="1" vertex="1">
          <mxGeometry x="566.5" y="-111" width="20" height="20" as="geometry" />
        </mxCell>
        <mxCell id="ZRgWqNr8BsxTpK86CNp5-216" value="" style="endArrow=none;html=1;rounded=0;strokeColor=#16FF56;strokeWidth=2.5;" parent="1" source="ZRgWqNr8BsxTpK86CNp5-218" edge="1">
          <mxGeometry width="50" height="50" relative="1" as="geometry">
            <mxPoint x="-165" y="-101" as="sourcePoint" />
            <mxPoint x="515" y="-101" as="targetPoint" />
          </mxGeometry>
        </mxCell>
        <mxCell id="ZRgWqNr8BsxTpK86CNp5-217" value="" style="endArrow=none;html=1;rounded=0;strokeColor=#16FF56;strokeWidth=2.5;" parent="1" source="ZRgWqNr8BsxTpK86CNp5-219" target="ZRgWqNr8BsxTpK86CNp5-218" edge="1">
          <mxGeometry width="50" height="50" relative="1" as="geometry">
            <mxPoint x="-165" y="-101" as="sourcePoint" />
            <mxPoint x="515" y="-101" as="targetPoint" />
          </mxGeometry>
        </mxCell>
        <mxCell id="ZRgWqNr8BsxTpK86CNp5-218" value="" style="shape=waypoint;sketch=0;fillStyle=solid;size=6;pointerEvents=1;points=[];fillColor=none;resizable=0;rotatable=0;perimeter=centerPerimeter;snapToPoint=1;strokeColor=#16FF56;strokeWidth=2.5;" parent="1" vertex="1">
          <mxGeometry x="446.5" y="-111" width="20" height="20" as="geometry" />
        </mxCell>
        <mxCell id="ZRgWqNr8BsxTpK86CNp5-225" value="&lt;b style=&quot;&quot;&gt;&lt;font style=&quot;color: light-dark(rgb(22, 255, 86), rgb(237, 237, 237));&quot;&gt;&lt;span style=&quot;font-size: 14px;&quot;&gt;V&lt;/span&gt;&lt;span style=&quot;font-size: 11.6667px;&quot;&gt;REF_P&lt;/span&gt;&lt;/font&gt;&lt;/b&gt;" style="text;strokeColor=none;align=center;fillColor=none;html=1;verticalAlign=middle;whiteSpace=wrap;rounded=0;direction=east;strokeWidth=2.5;" parent="1" vertex="1">
          <mxGeometry x="315" y="-130" width="60" height="30" as="geometry" />
        </mxCell>
        <mxCell id="ZRgWqNr8BsxTpK86CNp5-226" value="&lt;b&gt;&lt;font style=&quot;font-size: 14px; color: light-dark(rgb(19, 62, 236), rgb(237, 237, 237));&quot;&gt;V&lt;sub style=&quot;&quot;&gt;REF_N&lt;/sub&gt;&lt;/font&gt;&lt;/b&gt;" style="text;strokeColor=none;align=center;fillColor=none;html=1;verticalAlign=middle;whiteSpace=wrap;rounded=0;direction=west;strokeWidth=2.5;" parent="1" vertex="1">
          <mxGeometry x="295" y="-86" width="60" height="30" as="geometry" />
        </mxCell>
        <mxCell id="ZRgWqNr8BsxTpK86CNp5-227" value="" style="endArrow=none;html=1;rounded=0;strokeColor=#16FF56;strokeWidth=2.5;" parent="1" source="ZRgWqNr8BsxTpK86CNp5-219" edge="1">
          <mxGeometry width="50" height="50" relative="1" as="geometry">
            <mxPoint x="345" y="-101" as="sourcePoint" />
            <mxPoint x="405" y="-101" as="targetPoint" />
          </mxGeometry>
        </mxCell>
        <mxCell id="ZRgWqNr8BsxTpK86CNp5-228" value="" style="html=1;shape=mxgraph.electrical.electro-mechanical.twoWaySwitch;aspect=fixed;elSwitchState=2;rotation=90;direction=west;strokeWidth=2.5;" parent="1" vertex="1">
          <mxGeometry x="338.75" width="75" height="26" as="geometry" />
        </mxCell>
        <mxCell id="ZRgWqNr8BsxTpK86CNp5-229" value="" style="shape=waypoint;sketch=0;fillStyle=solid;size=6;pointerEvents=1;points=[];fillColor=none;resizable=0;rotatable=0;perimeter=centerPerimeter;snapToPoint=1;strokeWidth=2.5;" parent="1" vertex="1">
          <mxGeometry x="356.65" y="-90" width="20" height="20" as="geometry" />
        </mxCell>
        <mxCell id="ZRgWqNr8BsxTpK86CNp5-230" value="&lt;font color=&quot;#133eec&quot;&gt;D11&lt;/font&gt;" style="text;strokeColor=none;align=center;fillColor=none;html=1;verticalAlign=middle;whiteSpace=wrap;rounded=0;direction=west;strokeWidth=2.5;" parent="1" vertex="1">
          <mxGeometry x="386.25" y="-86" width="60" height="30" as="geometry" />
        </mxCell>
        <mxCell id="ZRgWqNr8BsxTpK86CNp5-231" value="&lt;font color=&quot;#133eec&quot;&gt;D7&lt;/font&gt;" style="text;strokeColor=none;align=center;fillColor=none;html=1;verticalAlign=middle;whiteSpace=wrap;rounded=0;direction=west;strokeWidth=2.5;" parent="1" vertex="1">
          <mxGeometry x="506.25" y="-86" width="60" height="30" as="geometry" />
        </mxCell>
        <mxCell id="ZRgWqNr8BsxTpK86CNp5-232" value="&lt;font color=&quot;#133eec&quot;&gt;D6&lt;/font&gt;" style="text;strokeColor=none;align=center;fillColor=none;html=1;verticalAlign=middle;whiteSpace=wrap;rounded=0;direction=west;strokeWidth=2.5;" parent="1" vertex="1">
          <mxGeometry x="566.25" y="-86" width="60" height="30" as="geometry" />
        </mxCell>
        <mxCell id="ZRgWqNr8BsxTpK86CNp5-233" value="&lt;font color=&quot;#16ff56&quot;&gt;D11&lt;/font&gt;" style="text;strokeColor=none;align=center;fillColor=none;html=1;verticalAlign=middle;whiteSpace=wrap;rounded=0;direction=east;strokeWidth=2.5;" parent="1" vertex="1">
          <mxGeometry x="426.5" y="-130" width="60" height="30" as="geometry" />
        </mxCell>
        <mxCell id="ZRgWqNr8BsxTpK86CNp5-234" value="&lt;font color=&quot;#16ff56&quot;&gt;D7&lt;/font&gt;" style="text;strokeColor=none;align=center;fillColor=none;html=1;verticalAlign=middle;whiteSpace=wrap;rounded=0;direction=east;strokeWidth=2.5;" parent="1" vertex="1">
          <mxGeometry x="546.5" y="-130" width="60" height="30" as="geometry" />
        </mxCell>
        <mxCell id="ZRgWqNr8BsxTpK86CNp5-235" value="&lt;font color=&quot;#16ff56&quot;&gt;D6&lt;/font&gt;" style="text;strokeColor=none;align=center;fillColor=none;html=1;verticalAlign=middle;whiteSpace=wrap;rounded=0;direction=east;strokeWidth=2.5;" parent="1" vertex="1">
          <mxGeometry x="606.25" y="-130" width="60" height="30" as="geometry" />
        </mxCell>
        <mxCell id="ZRgWqNr8BsxTpK86CNp5-236" value="" style="endArrow=none;html=1;rounded=0;strokeColor=#16FF56;strokeWidth=2.5;" parent="1" edge="1">
          <mxGeometry width="50" height="50" relative="1" as="geometry">
            <mxPoint x="446.5" y="-122" as="sourcePoint" />
            <mxPoint x="465.5" y="-122" as="targetPoint" />
          </mxGeometry>
        </mxCell>
        <mxCell id="ZRgWqNr8BsxTpK86CNp5-237" value="" style="endArrow=none;html=1;rounded=0;strokeColor=#16FF56;strokeWidth=2.5;" parent="1" edge="1">
          <mxGeometry width="50" height="50" relative="1" as="geometry">
            <mxPoint x="569" y="-123" as="sourcePoint" />
            <mxPoint x="585" y="-123" as="targetPoint" />
          </mxGeometry>
        </mxCell>
        <mxCell id="ZRgWqNr8BsxTpK86CNp5-238" value="" style="endArrow=none;html=1;rounded=0;strokeColor=#16FF56;strokeWidth=2.5;" parent="1" edge="1">
          <mxGeometry width="50" height="50" relative="1" as="geometry">
            <mxPoint x="628.25" y="-123" as="sourcePoint" />
            <mxPoint x="644.25" y="-123" as="targetPoint" />
          </mxGeometry>
        </mxCell>
        <mxCell id="ZRgWqNr8BsxTpK86CNp5-239" value="" style="pointerEvents=1;verticalLabelPosition=bottom;shadow=0;dashed=0;align=center;html=1;verticalAlign=top;shape=mxgraph.electrical.capacitors.capacitor_1;rotation=90;direction=south;strokeWidth=2.5;" parent="1" vertex="1">
          <mxGeometry x="688" y="166" width="30" height="60" as="geometry" />
        </mxCell>
        <mxCell id="ZRgWqNr8BsxTpK86CNp5-240" value="" style="pointerEvents=1;verticalLabelPosition=bottom;shadow=0;dashed=0;align=center;html=1;verticalAlign=top;shape=mxgraph.electrical.capacitors.capacitor_1;rotation=90;strokeWidth=2.5;" parent="1" vertex="1">
          <mxGeometry x="758.75" y="90" width="60" height="30" as="geometry" />
        </mxCell>
        <mxCell id="ZRgWqNr8BsxTpK86CNp5-241" value="" style="pointerEvents=1;verticalLabelPosition=bottom;shadow=0;dashed=0;align=center;html=1;verticalAlign=top;shape=mxgraph.electrical.capacitors.capacitor_1;rotation=90;strokeWidth=2.5;" parent="1" vertex="1">
          <mxGeometry x="878.75" y="90" width="60" height="30" as="geometry" />
        </mxCell>
        <mxCell id="ZRgWqNr8BsxTpK86CNp5-242" value="" style="pointerEvents=1;verticalLabelPosition=bottom;shadow=0;dashed=0;align=center;html=1;verticalAlign=top;shape=mxgraph.electrical.capacitors.capacitor_1;rotation=90;strokeWidth=2.5;" parent="1" vertex="1">
          <mxGeometry x="938.75" y="90" width="60" height="30" as="geometry" />
        </mxCell>
        <mxCell id="ZRgWqNr8BsxTpK86CNp5-246" value="&lt;font style=&quot;font-size: 14px;&quot;&gt;&lt;b&gt;2&lt;sup style=&quot;&quot;&gt;0&lt;/sup&gt;&lt;/b&gt;&lt;/font&gt;&lt;b style=&quot;font-size: 14px;&quot;&gt;C&lt;sub&gt;u&lt;/sub&gt;&lt;/b&gt;" style="text;strokeColor=none;align=center;fillColor=none;html=1;verticalAlign=middle;whiteSpace=wrap;rounded=0;strokeWidth=2.5;" parent="1" vertex="1">
          <mxGeometry x="972.5" y="70" width="60" height="30" as="geometry" />
        </mxCell>
        <mxCell id="ZRgWqNr8BsxTpK86CNp5-247" value="&lt;b style=&quot;forced-color-adjust: none; color: rgb(0, 0, 0); font-family: Helvetica; font-size: 14px; font-style: normal; font-variant-ligatures: normal; font-variant-caps: normal; letter-spacing: normal; orphans: 2; text-align: center; text-indent: 0px; text-transform: none; widows: 2; word-spacing: 0px; -webkit-text-stroke-width: 0px; white-space: normal; background-color: rgb(251, 251, 251); text-decoration-thickness: initial; text-decoration-style: initial; text-decoration-color: initial;&quot;&gt;2&lt;sup&gt;1&lt;/sup&gt;&lt;/b&gt;&lt;b style=&quot;font-size: 14px; text-align: center;&quot;&gt;C&lt;sub&gt;u&lt;/sub&gt;&lt;/b&gt;" style="text;whiteSpace=wrap;html=1;strokeWidth=2.5;" parent="1" vertex="1">
          <mxGeometry x="912.5" y="67.5" width="60" height="40" as="geometry" />
        </mxCell>
        <mxCell id="ZRgWqNr8BsxTpK86CNp5-248" value="&lt;b style=&quot;font-size: 14px; text-align: center;&quot;&gt;&lt;span style=&quot;background-color: rgb(251, 251, 251);&quot;&gt;2&lt;sup&gt;5&lt;/sup&gt;&lt;/span&gt;C&lt;sub&gt;u&lt;/sub&gt;&lt;/b&gt;" style="text;whiteSpace=wrap;html=1;strokeWidth=2.5;" parent="1" vertex="1">
          <mxGeometry x="793.75" y="70" width="60" height="40" as="geometry" />
        </mxCell>
        <mxCell id="ZRgWqNr8BsxTpK86CNp5-249" value="" style="pointerEvents=1;verticalLabelPosition=bottom;shadow=0;dashed=0;align=center;html=1;verticalAlign=top;shape=mxgraph.electrical.electro-mechanical.selectorSwitch3Position2;elSwitchState=1;rotation=90;direction=west;strokeWidth=2.5;" parent="1" vertex="1">
          <mxGeometry x="751.25" y="-10" width="75" height="46" as="geometry" />
        </mxCell>
        <mxCell id="ZRgWqNr8BsxTpK86CNp5-250" value="" style="pointerEvents=1;verticalLabelPosition=bottom;shadow=0;dashed=0;align=center;html=1;verticalAlign=top;shape=mxgraph.electrical.electro-mechanical.selectorSwitch3Position2;elSwitchState=1;rotation=90;direction=west;strokeWidth=2.5;" parent="1" vertex="1">
          <mxGeometry x="871.25" y="-10" width="75" height="46" as="geometry" />
        </mxCell>
        <mxCell id="ZRgWqNr8BsxTpK86CNp5-251" value="" style="pointerEvents=1;verticalLabelPosition=bottom;shadow=0;dashed=0;align=center;html=1;verticalAlign=top;shape=mxgraph.electrical.electro-mechanical.selectorSwitch3Position2;elSwitchState=1;rotation=90;direction=west;strokeWidth=2.5;" parent="1" vertex="1">
          <mxGeometry x="931.25" y="-10" width="75" height="46" as="geometry" />
        </mxCell>
        <mxCell id="ZRgWqNr8BsxTpK86CNp5-255" value="" style="endArrow=none;html=1;rounded=0;strokeColor=light-dark(#133eec, #ededed);strokeWidth=2.5;" parent="1" source="ZRgWqNr8BsxTpK86CNp5-265" edge="1">
          <mxGeometry width="50" height="50" relative="1" as="geometry">
            <mxPoint x="100" y="-56" as="sourcePoint" />
            <mxPoint x="900" y="-56" as="targetPoint" />
          </mxGeometry>
        </mxCell>
        <mxCell id="ZRgWqNr8BsxTpK86CNp5-256" value="" style="endArrow=none;html=1;rounded=0;strokeWidth=2.5;" parent="1" edge="1">
          <mxGeometry width="50" height="50" relative="1" as="geometry">
            <mxPoint x="907.5" y="-80" as="sourcePoint" />
            <mxPoint x="967.5" y="-80" as="targetPoint" />
          </mxGeometry>
        </mxCell>
        <mxCell id="ZRgWqNr8BsxTpK86CNp5-257" value="" style="endArrow=none;html=1;rounded=0;strokeColor=#16FF56;strokeWidth=2.5;" parent="1" source="ZRgWqNr8BsxTpK86CNp5-280" edge="1">
          <mxGeometry width="50" height="50" relative="1" as="geometry">
            <mxPoint x="147.5" y="-101" as="sourcePoint" />
            <mxPoint x="987.5" y="-101" as="targetPoint" />
          </mxGeometry>
        </mxCell>
        <mxCell id="ZRgWqNr8BsxTpK86CNp5-258" value="" style="endArrow=none;html=1;rounded=0;entryX=0.993;entryY=0.935;entryDx=0;entryDy=0;entryPerimeter=0;strokeWidth=2.5;" parent="1" edge="1">
          <mxGeometry width="50" height="50" relative="1" as="geometry">
            <mxPoint x="768.5" y="-24" as="sourcePoint" />
            <mxPoint x="768.5" y="-56" as="targetPoint" />
          </mxGeometry>
        </mxCell>
        <mxCell id="ZRgWqNr8BsxTpK86CNp5-260" value="" style="endArrow=none;html=1;rounded=0;entryX=0.998;entryY=0.946;entryDx=0;entryDy=0;entryPerimeter=0;strokeWidth=2.5;" parent="1" edge="1">
          <mxGeometry width="50" height="50" relative="1" as="geometry">
            <mxPoint x="948.5" y="-24" as="sourcePoint" />
            <mxPoint x="948.5" y="-56" as="targetPoint" />
          </mxGeometry>
        </mxCell>
        <mxCell id="ZRgWqNr8BsxTpK86CNp5-261" value="" style="endArrow=none;html=1;rounded=0;strokeColor=light-dark(#133eec, #ededed);exitDx=0;exitDy=0;exitPerimeter=0;entryX=-0.088;entryY=0.331;entryDx=0;entryDy=0;entryPerimeter=0;strokeWidth=2.5;" parent="1" source="ZRgWqNr8BsxTpK86CNp5-296" edge="1">
          <mxGeometry width="50" height="50" relative="1" as="geometry">
            <mxPoint x="720" y="-56" as="sourcePoint" />
            <mxPoint x="780" y="-56" as="targetPoint" />
          </mxGeometry>
        </mxCell>
        <mxCell id="ZRgWqNr8BsxTpK86CNp5-262" value="" style="endArrow=none;html=1;rounded=0;strokeColor=light-dark(#133eec, #ededed);strokeWidth=2.5;" parent="1" target="ZRgWqNr8BsxTpK86CNp5-263" edge="1">
          <mxGeometry width="50" height="50" relative="1" as="geometry">
            <mxPoint x="780" y="-56" as="sourcePoint" />
            <mxPoint x="940" y="-56" as="targetPoint" />
          </mxGeometry>
        </mxCell>
        <mxCell id="ZRgWqNr8BsxTpK86CNp5-263" value="" style="shape=waypoint;sketch=0;fillStyle=solid;size=6;pointerEvents=1;points=[];fillColor=none;resizable=0;rotatable=0;perimeter=centerPerimeter;snapToPoint=1;strokeColor=light-dark(#133eec, #ededed);strokeWidth=2.5;" parent="1" vertex="1">
          <mxGeometry x="878.75" y="-66" width="20" height="20" as="geometry" />
        </mxCell>
        <mxCell id="ZRgWqNr8BsxTpK86CNp5-264" value="" style="endArrow=none;html=1;rounded=0;strokeColor=light-dark(#133eec, #ededed);strokeWidth=2.5;" parent="1" source="ZRgWqNr8BsxTpK86CNp5-263" target="ZRgWqNr8BsxTpK86CNp5-265" edge="1">
          <mxGeometry width="50" height="50" relative="1" as="geometry">
            <mxPoint x="840" y="-56" as="sourcePoint" />
            <mxPoint x="940" y="-56" as="targetPoint" />
          </mxGeometry>
        </mxCell>
        <mxCell id="ZRgWqNr8BsxTpK86CNp5-265" value="" style="shape=waypoint;sketch=0;fillStyle=solid;size=6;pointerEvents=1;points=[];fillColor=none;resizable=0;rotatable=0;perimeter=centerPerimeter;snapToPoint=1;strokeColor=light-dark(#133eec, #ededed);strokeWidth=2.5;" parent="1" vertex="1">
          <mxGeometry x="938.75" y="-66" width="20" height="20" as="geometry" />
        </mxCell>
        <mxCell id="ZRgWqNr8BsxTpK86CNp5-268" value="" style="shape=waypoint;sketch=0;fillStyle=solid;size=6;pointerEvents=1;points=[];fillColor=none;resizable=0;rotatable=0;perimeter=centerPerimeter;snapToPoint=1;strokeWidth=2.5;" parent="1" vertex="1">
          <mxGeometry x="958.75" y="-90" width="20" height="20" as="geometry" />
        </mxCell>
        <mxCell id="ZRgWqNr8BsxTpK86CNp5-269" value="" style="endArrow=none;html=1;rounded=0;strokeWidth=2.5;" parent="1" edge="1">
          <mxGeometry width="50" height="50" relative="1" as="geometry">
            <mxPoint x="847.5" y="-80" as="sourcePoint" />
            <mxPoint x="907.5" y="-80" as="targetPoint" />
          </mxGeometry>
        </mxCell>
        <mxCell id="ZRgWqNr8BsxTpK86CNp5-271" value="" style="endArrow=none;html=1;rounded=0;entryX=0.75;entryY=0.833;entryDx=0;entryDy=0;entryPerimeter=0;strokeWidth=2.5;" parent="1" source="ZRgWqNr8BsxTpK86CNp5-200" edge="1">
          <mxGeometry width="50" height="50" relative="1" as="geometry">
            <mxPoint x="615" y="-80" as="sourcePoint" />
            <mxPoint x="847.5" y="-80" as="targetPoint" />
          </mxGeometry>
        </mxCell>
        <mxCell id="ZRgWqNr8BsxTpK86CNp5-273" value="" style="shape=waypoint;sketch=0;fillStyle=solid;size=6;pointerEvents=1;points=[];fillColor=none;resizable=0;rotatable=0;perimeter=centerPerimeter;snapToPoint=1;strokeWidth=2.5;" parent="1" vertex="1">
          <mxGeometry x="778.75" y="-90" width="20" height="20" as="geometry" />
        </mxCell>
        <mxCell id="ZRgWqNr8BsxTpK86CNp5-274" value="" style="endArrow=none;html=1;rounded=0;entryX=0.999;entryY=0.052;entryDx=0;entryDy=0;entryPerimeter=0;strokeWidth=2.5;" parent="1" source="ZRgWqNr8BsxTpK86CNp5-282" edge="1">
          <mxGeometry width="50" height="50" relative="1" as="geometry">
            <mxPoint x="809" y="-21.420000000000073" as="sourcePoint" />
            <mxPoint x="809" y="-101" as="targetPoint" />
          </mxGeometry>
        </mxCell>
        <mxCell id="ZRgWqNr8BsxTpK86CNp5-275" value="" style="endArrow=none;html=1;rounded=0;entryX=0.999;entryY=0.052;entryDx=0;entryDy=0;entryPerimeter=0;strokeWidth=2.5;" parent="1" edge="1">
          <mxGeometry width="50" height="50" relative="1" as="geometry">
            <mxPoint x="929" y="-21.420000000000073" as="sourcePoint" />
            <mxPoint x="929" y="-101" as="targetPoint" />
          </mxGeometry>
        </mxCell>
        <mxCell id="ZRgWqNr8BsxTpK86CNp5-277" value="" style="endArrow=none;html=1;rounded=0;strokeColor=#16FF56;strokeWidth=2.5;" parent="1" target="ZRgWqNr8BsxTpK86CNp5-278" edge="1">
          <mxGeometry width="50" height="50" relative="1" as="geometry">
            <mxPoint x="987.75" y="-101" as="sourcePoint" />
            <mxPoint x="987.75" y="-170.99500000000012" as="targetPoint" />
          </mxGeometry>
        </mxCell>
        <mxCell id="ZRgWqNr8BsxTpK86CNp5-279" value="" style="endArrow=none;html=1;rounded=0;strokeColor=#16FF56;strokeWidth=2.5;" parent="1" target="ZRgWqNr8BsxTpK86CNp5-280" edge="1">
          <mxGeometry width="50" height="50" relative="1" as="geometry">
            <mxPoint x="867.5" y="-101" as="sourcePoint" />
            <mxPoint x="987.5" y="-101" as="targetPoint" />
          </mxGeometry>
        </mxCell>
        <mxCell id="ZRgWqNr8BsxTpK86CNp5-280" value="" style="shape=waypoint;sketch=0;fillStyle=solid;size=6;pointerEvents=1;points=[];fillColor=none;resizable=0;rotatable=0;perimeter=centerPerimeter;snapToPoint=1;gradientColor=none;strokeColor=#16FF56;strokeWidth=2.5;" parent="1" vertex="1">
          <mxGeometry x="918.75" y="-111" width="20" height="20" as="geometry" />
        </mxCell>
        <mxCell id="ZRgWqNr8BsxTpK86CNp5-281" value="" style="endArrow=none;html=1;rounded=0;strokeColor=#16FF56;entryX=0.5;entryY=0;entryDx=0;entryDy=0;strokeWidth=2.5;" parent="1" source="ZRgWqNr8BsxTpK86CNp5-213" edge="1">
          <mxGeometry width="50" height="50" relative="1" as="geometry">
            <mxPoint x="670" y="-101" as="sourcePoint" />
            <mxPoint x="867.5" y="-101" as="targetPoint" />
          </mxGeometry>
        </mxCell>
        <mxCell id="ZRgWqNr8BsxTpK86CNp5-287" value="&lt;font style=&quot;color: light-dark(rgb(19, 62, 236), rgb(237, 237, 237));&quot;&gt;D1&lt;/font&gt;" style="text;strokeColor=none;align=center;fillColor=none;html=1;verticalAlign=middle;whiteSpace=wrap;rounded=0;direction=west;strokeWidth=2.5;" parent="1" vertex="1">
          <mxGeometry x="858.75" y="-86" width="60" height="30" as="geometry" />
        </mxCell>
        <mxCell id="ZRgWqNr8BsxTpK86CNp5-288" value="&lt;font style=&quot;color: light-dark(rgb(19, 62, 236), rgb(237, 237, 237));&quot;&gt;D0&lt;/font&gt;" style="text;strokeColor=none;align=center;fillColor=none;html=1;verticalAlign=middle;whiteSpace=wrap;rounded=0;direction=west;strokeWidth=2.5;" parent="1" vertex="1">
          <mxGeometry x="918.75" y="-86" width="60" height="30" as="geometry" />
        </mxCell>
        <mxCell id="ZRgWqNr8BsxTpK86CNp5-289" value="&lt;font color=&quot;#16ff56&quot;&gt;D5&lt;/font&gt;" style="text;strokeColor=none;align=center;fillColor=none;html=1;verticalAlign=middle;whiteSpace=wrap;rounded=0;direction=east;strokeWidth=2.5;" parent="1" vertex="1">
          <mxGeometry x="777.5" y="-130" width="60" height="30" as="geometry" />
        </mxCell>
        <mxCell id="ZRgWqNr8BsxTpK86CNp5-290" value="&lt;font style=&quot;color: rgb(22, 255, 86);&quot;&gt;D1&lt;/font&gt;" style="text;strokeColor=none;align=center;fillColor=none;html=1;verticalAlign=middle;whiteSpace=wrap;rounded=0;direction=east;strokeWidth=2.5;" parent="1" vertex="1">
          <mxGeometry x="897.5" y="-130" width="60" height="30" as="geometry" />
        </mxCell>
        <mxCell id="ZRgWqNr8BsxTpK86CNp5-291" value="&lt;font style=&quot;color: rgb(22, 255, 86);&quot;&gt;D0&lt;/font&gt;" style="text;strokeColor=none;align=center;fillColor=none;html=1;verticalAlign=middle;whiteSpace=wrap;rounded=0;direction=east;strokeWidth=2.5;" parent="1" vertex="1">
          <mxGeometry x="962.5" y="-130" width="60" height="30" as="geometry" />
        </mxCell>
        <mxCell id="ZRgWqNr8BsxTpK86CNp5-292" value="" style="endArrow=none;html=1;rounded=0;strokeColor=#16FF56;strokeWidth=2.5;" parent="1" edge="1">
          <mxGeometry width="50" height="50" relative="1" as="geometry">
            <mxPoint x="800.75" y="-123" as="sourcePoint" />
            <mxPoint x="816.75" y="-123" as="targetPoint" />
          </mxGeometry>
        </mxCell>
        <mxCell id="ZRgWqNr8BsxTpK86CNp5-293" value="" style="endArrow=none;html=1;rounded=0;strokeColor=#16FF56;strokeWidth=2.5;" parent="1" edge="1">
          <mxGeometry width="50" height="50" relative="1" as="geometry">
            <mxPoint x="919.5" y="-123" as="sourcePoint" />
            <mxPoint x="935.5" y="-123" as="targetPoint" />
          </mxGeometry>
        </mxCell>
        <mxCell id="ZRgWqNr8BsxTpK86CNp5-294" value="" style="endArrow=none;html=1;rounded=0;strokeColor=#16FF56;strokeWidth=2.5;" parent="1" edge="1">
          <mxGeometry width="50" height="50" relative="1" as="geometry">
            <mxPoint x="984.5" y="-123" as="sourcePoint" />
            <mxPoint x="1000.5" y="-123" as="targetPoint" />
          </mxGeometry>
        </mxCell>
        <mxCell id="ZRgWqNr8BsxTpK86CNp5-295" value="" style="endArrow=none;html=1;rounded=0;entryX=0.003;entryY=1.017;entryDx=0;entryDy=0;entryPerimeter=0;strokeWidth=2.5;" parent="1" edge="1">
          <mxGeometry width="50" height="50" relative="1" as="geometry">
            <mxPoint x="716.77" y="196" as="sourcePoint" />
            <mxPoint x="1049.995" y="196.30600000000004" as="targetPoint" />
          </mxGeometry>
        </mxCell>
        <mxCell id="ZRgWqNr8BsxTpK86CNp5-297" value="&lt;font color=&quot;#133eec&quot;&gt;D5&lt;/font&gt;" style="text;strokeColor=none;align=center;fillColor=none;html=1;verticalAlign=middle;whiteSpace=wrap;rounded=0;direction=west;strokeWidth=2.5;" parent="1" vertex="1">
          <mxGeometry x="737.5" y="-86" width="60" height="30" as="geometry" />
        </mxCell>
        <mxCell id="ZRgWqNr8BsxTpK86CNp5-298" value="" style="html=1;shape=mxgraph.electrical.electro-mechanical.singleSwitch;aspect=fixed;elSwitchState=off;direction=east;strokeWidth=2.5;" parent="1" vertex="1">
          <mxGeometry x="131" y="-108" width="131.27" height="35" as="geometry" />
        </mxCell>
        <mxCell id="ZRgWqNr8BsxTpK86CNp5-299" value="" style="endArrow=none;html=1;rounded=0;exitX=0;exitY=0.5;exitDx=0;exitDy=0;exitPerimeter=0;strokeWidth=2.5;" parent="1" edge="1">
          <mxGeometry width="50" height="50" relative="1" as="geometry">
            <mxPoint x="376.25" y="196" as="sourcePoint" />
            <mxPoint x="376.25" y="130" as="targetPoint" />
          </mxGeometry>
        </mxCell>
        <mxCell id="ZRgWqNr8BsxTpK86CNp5-306" value="" style="endArrow=none;html=1;rounded=0;exitX=0;exitY=0.5;exitDx=0;exitDy=0;exitPerimeter=0;strokeWidth=2.5;" parent="1" edge="1">
          <mxGeometry width="50" height="50" relative="1" as="geometry">
            <mxPoint x="436.25" y="196" as="sourcePoint" />
            <mxPoint x="436.25" y="130" as="targetPoint" />
          </mxGeometry>
        </mxCell>
        <mxCell id="ZRgWqNr8BsxTpK86CNp5-307" value="" style="endArrow=none;html=1;rounded=0;exitX=0;exitY=0.5;exitDx=0;exitDy=0;exitPerimeter=0;strokeWidth=2.5;" parent="1" edge="1">
          <mxGeometry width="50" height="50" relative="1" as="geometry">
            <mxPoint x="556.25" y="196" as="sourcePoint" />
            <mxPoint x="556.25" y="133" as="targetPoint" />
          </mxGeometry>
        </mxCell>
        <mxCell id="ZRgWqNr8BsxTpK86CNp5-308" value="" style="endArrow=none;html=1;rounded=0;exitX=0;exitY=0.5;exitDx=0;exitDy=0;exitPerimeter=0;strokeWidth=2.5;" parent="1" edge="1">
          <mxGeometry width="50" height="50" relative="1" as="geometry">
            <mxPoint x="616.25" y="196" as="sourcePoint" />
            <mxPoint x="616.25" y="130" as="targetPoint" />
          </mxGeometry>
        </mxCell>
        <mxCell id="ZRgWqNr8BsxTpK86CNp5-309" value="" style="endArrow=none;html=1;rounded=0;exitX=0;exitY=0.5;exitDx=0;exitDy=0;exitPerimeter=0;strokeWidth=2.5;" parent="1" edge="1">
          <mxGeometry width="50" height="50" relative="1" as="geometry">
            <mxPoint x="788.75" y="196" as="sourcePoint" />
            <mxPoint x="788.75" y="130" as="targetPoint" />
          </mxGeometry>
        </mxCell>
        <mxCell id="ZRgWqNr8BsxTpK86CNp5-310" value="" style="endArrow=none;html=1;rounded=0;exitX=0;exitY=0.5;exitDx=0;exitDy=0;exitPerimeter=0;strokeWidth=2.5;" parent="1" edge="1">
          <mxGeometry width="50" height="50" relative="1" as="geometry">
            <mxPoint x="908.75" y="196" as="sourcePoint" />
            <mxPoint x="908.75" y="130" as="targetPoint" />
          </mxGeometry>
        </mxCell>
        <mxCell id="ZRgWqNr8BsxTpK86CNp5-311" value="" style="endArrow=none;html=1;rounded=0;exitX=0;exitY=0.5;exitDx=0;exitDy=0;exitPerimeter=0;strokeWidth=2.5;" parent="1" edge="1">
          <mxGeometry width="50" height="50" relative="1" as="geometry">
            <mxPoint x="968.75" y="196" as="sourcePoint" />
            <mxPoint x="968.75" y="130" as="targetPoint" />
          </mxGeometry>
        </mxCell>
        <mxCell id="ZRgWqNr8BsxTpK86CNp5-317" value="" style="endArrow=none;html=1;rounded=0;entryX=0;entryY=0.5;entryDx=0;entryDy=0;exitX=0.083;exitY=0.5;exitDx=0;exitDy=0;exitPerimeter=0;strokeWidth=2.5;" parent="1" source="ZRgWqNr8BsxTpK86CNp5-163" target="ZRgWqNr8BsxTpK86CNp5-228" edge="1">
          <mxGeometry width="50" height="50" relative="1" as="geometry">
            <mxPoint x="480" y="80" as="sourcePoint" />
            <mxPoint x="530" y="30" as="targetPoint" />
          </mxGeometry>
        </mxCell>
        <mxCell id="ZRgWqNr8BsxTpK86CNp5-318" value="" style="endArrow=none;html=1;rounded=0;exitX=0;exitY=0.5;exitDx=0;exitDy=0;exitPerimeter=0;strokeWidth=2.5;" parent="1" source="ZRgWqNr8BsxTpK86CNp5-164" target="ZRgWqNr8BsxTpK86CNp5-176" edge="1">
          <mxGeometry width="50" height="50" relative="1" as="geometry">
            <mxPoint x="455.09" y="70.00000000000011" as="sourcePoint" />
            <mxPoint x="454.906" y="44.90000000000009" as="targetPoint" />
          </mxGeometry>
        </mxCell>
        <mxCell id="ZRgWqNr8BsxTpK86CNp5-319" value="" style="endArrow=none;html=1;rounded=0;entryX=0;entryY=0.5;entryDx=0;entryDy=0;entryPerimeter=0;strokeWidth=2.5;" parent="1" source="ZRgWqNr8BsxTpK86CNp5-177" target="ZRgWqNr8BsxTpK86CNp5-165" edge="1">
          <mxGeometry width="50" height="50" relative="1" as="geometry">
            <mxPoint x="565" y="80" as="sourcePoint" />
            <mxPoint x="565" y="56" as="targetPoint" />
          </mxGeometry>
        </mxCell>
        <mxCell id="ZRgWqNr8BsxTpK86CNp5-320" value="" style="endArrow=none;html=1;rounded=0;exitX=0;exitY=0.5;exitDx=0;exitDy=0;exitPerimeter=0;strokeWidth=2.5;" parent="1" source="ZRgWqNr8BsxTpK86CNp5-166" target="ZRgWqNr8BsxTpK86CNp5-178" edge="1">
          <mxGeometry width="50" height="50" relative="1" as="geometry">
            <mxPoint x="624.9000000000001" y="80" as="sourcePoint" />
            <mxPoint x="624.87" y="50" as="targetPoint" />
          </mxGeometry>
        </mxCell>
        <mxCell id="ZRgWqNr8BsxTpK86CNp5-321" value="" style="endArrow=none;html=1;rounded=0;exitX=0;exitY=0.5;exitDx=0;exitDy=0;exitPerimeter=0;strokeWidth=2.5;" parent="1" source="ZRgWqNr8BsxTpK86CNp5-240" target="ZRgWqNr8BsxTpK86CNp5-249" edge="1">
          <mxGeometry width="50" height="50" relative="1" as="geometry">
            <mxPoint x="820" y="60" as="sourcePoint" />
            <mxPoint x="870" y="10" as="targetPoint" />
          </mxGeometry>
        </mxCell>
        <mxCell id="ZRgWqNr8BsxTpK86CNp5-322" value="" style="endArrow=none;html=1;rounded=0;exitX=0;exitY=0.5;exitDx=0;exitDy=0;exitPerimeter=0;strokeWidth=2.5;" parent="1" source="ZRgWqNr8BsxTpK86CNp5-241" target="ZRgWqNr8BsxTpK86CNp5-250" edge="1">
          <mxGeometry width="50" height="50" relative="1" as="geometry">
            <mxPoint x="870" y="60" as="sourcePoint" />
            <mxPoint x="920" y="10" as="targetPoint" />
          </mxGeometry>
        </mxCell>
        <mxCell id="ZRgWqNr8BsxTpK86CNp5-323" value="" style="endArrow=none;html=1;rounded=0;entryX=0;entryY=0.5;entryDx=0;entryDy=0;entryPerimeter=0;strokeWidth=2.5;" parent="1" source="ZRgWqNr8BsxTpK86CNp5-251" target="ZRgWqNr8BsxTpK86CNp5-242" edge="1">
          <mxGeometry width="50" height="50" relative="1" as="geometry">
            <mxPoint x="870" y="60" as="sourcePoint" />
            <mxPoint x="860" y="80" as="targetPoint" />
          </mxGeometry>
        </mxCell>
        <mxCell id="ZRgWqNr8BsxTpK86CNp5-328" value="" style="endArrow=none;html=1;rounded=0;strokeColor=light-dark(#133eec, #ededed);exitX=-0.088;exitY=0.331;exitDx=0;exitDy=0;exitPerimeter=0;entryDx=0;entryDy=0;entryPerimeter=0;strokeWidth=2.5;" parent="1" source="ZRgWqNr8BsxTpK86CNp5-197" target="ZRgWqNr8BsxTpK86CNp5-296" edge="1">
          <mxGeometry width="50" height="50" relative="1" as="geometry">
            <mxPoint x="596" y="-56" as="sourcePoint" />
            <mxPoint x="780" y="-56" as="targetPoint" />
          </mxGeometry>
        </mxCell>
        <mxCell id="ZRgWqNr8BsxTpK86CNp5-296" value="" style="shape=waypoint;sketch=0;fillStyle=solid;size=6;pointerEvents=1;points=[];fillColor=none;resizable=0;rotatable=0;perimeter=centerPerimeter;snapToPoint=1;strokeColor=light-dark(#133eec, #ededed);strokeWidth=2.5;" parent="1" vertex="1">
          <mxGeometry x="758.75" y="-66" width="20" height="20" as="geometry" />
        </mxCell>
        <mxCell id="ZRgWqNr8BsxTpK86CNp5-330" value="" style="endArrow=none;html=1;rounded=0;strokeWidth=2.5;" parent="1" edge="1">
          <mxGeometry width="50" height="50" relative="1" as="geometry">
            <mxPoint x="436.25" y="-20" as="sourcePoint" />
            <mxPoint x="436.25" y="-80" as="targetPoint" />
          </mxGeometry>
        </mxCell>
        <mxCell id="ZRgWqNr8BsxTpK86CNp5-332" value="" style="endArrow=none;html=1;rounded=0;strokeWidth=2.5;" parent="1" edge="1">
          <mxGeometry width="50" height="50" relative="1" as="geometry">
            <mxPoint x="556.3" y="-20" as="sourcePoint" />
            <mxPoint x="556.3" y="-80" as="targetPoint" />
          </mxGeometry>
        </mxCell>
        <mxCell id="ZRgWqNr8BsxTpK86CNp5-333" value="" style="endArrow=none;html=1;rounded=0;strokeWidth=2.5;" parent="1" edge="1">
          <mxGeometry width="50" height="50" relative="1" as="geometry">
            <mxPoint x="616.25" y="-23" as="sourcePoint" />
            <mxPoint x="616.25" y="-80" as="targetPoint" />
          </mxGeometry>
        </mxCell>
        <mxCell id="ZRgWqNr8BsxTpK86CNp5-334" value="" style="endArrow=none;html=1;rounded=0;entryDx=0;entryDy=0;entryPerimeter=0;strokeWidth=2.5;" parent="1" target="ZRgWqNr8BsxTpK86CNp5-200" edge="1">
          <mxGeometry width="50" height="50" relative="1" as="geometry">
            <mxPoint x="615" y="-80" as="sourcePoint" />
            <mxPoint x="847.5" y="-80" as="targetPoint" />
          </mxGeometry>
        </mxCell>
        <mxCell id="ZRgWqNr8BsxTpK86CNp5-200" value="" style="shape=waypoint;sketch=0;fillStyle=solid;size=6;pointerEvents=1;points=[];fillColor=none;resizable=0;rotatable=0;perimeter=centerPerimeter;snapToPoint=1;strokeWidth=2.5;" parent="1" vertex="1">
          <mxGeometry x="606.25" y="-90" width="20" height="20" as="geometry" />
        </mxCell>
        <mxCell id="ZRgWqNr8BsxTpK86CNp5-335" value="" style="endArrow=none;html=1;rounded=0;strokeWidth=2.5;" parent="1" edge="1">
          <mxGeometry width="50" height="50" relative="1" as="geometry">
            <mxPoint x="788.75" y="-20" as="sourcePoint" />
            <mxPoint x="788.75" y="-80" as="targetPoint" />
          </mxGeometry>
        </mxCell>
        <mxCell id="ZRgWqNr8BsxTpK86CNp5-336" value="" style="endArrow=none;html=1;rounded=0;strokeWidth=2.5;" parent="1" source="ZRgWqNr8BsxTpK86CNp5-270" edge="1">
          <mxGeometry width="50" height="50" relative="1" as="geometry">
            <mxPoint x="908.75" y="-20" as="sourcePoint" />
            <mxPoint x="908.75" y="-80" as="targetPoint" />
          </mxGeometry>
        </mxCell>
        <mxCell id="ZRgWqNr8BsxTpK86CNp5-337" value="" style="endArrow=none;html=1;rounded=0;strokeWidth=2.5;" parent="1" target="ZRgWqNr8BsxTpK86CNp5-270" edge="1">
          <mxGeometry width="50" height="50" relative="1" as="geometry">
            <mxPoint x="908.75" y="-20" as="sourcePoint" />
            <mxPoint x="908.75" y="-80" as="targetPoint" />
          </mxGeometry>
        </mxCell>
        <mxCell id="ZRgWqNr8BsxTpK86CNp5-270" value="" style="shape=waypoint;sketch=0;fillStyle=solid;size=6;pointerEvents=1;points=[];fillColor=none;resizable=0;rotatable=0;perimeter=centerPerimeter;snapToPoint=1;strokeWidth=2.5;" parent="1" vertex="1">
          <mxGeometry x="898.75" y="-90" width="20" height="20" as="geometry" />
        </mxCell>
        <mxCell id="ZRgWqNr8BsxTpK86CNp5-338" value="" style="endArrow=none;html=1;rounded=0;strokeWidth=2.5;" parent="1" edge="1">
          <mxGeometry width="50" height="50" relative="1" as="geometry">
            <mxPoint x="968.75" y="-20" as="sourcePoint" />
            <mxPoint x="968.75" y="-80" as="targetPoint" />
          </mxGeometry>
        </mxCell>
        <mxCell id="ZRgWqNr8BsxTpK86CNp5-339" value="" style="endArrow=none;html=1;rounded=0;strokeWidth=2.5;" parent="1" target="ZRgWqNr8BsxTpK86CNp5-213" edge="1">
          <mxGeometry width="50" height="50" relative="1" as="geometry">
            <mxPoint x="636.5" y="-101" as="sourcePoint" />
            <mxPoint x="636.5" y="-23" as="targetPoint" />
          </mxGeometry>
        </mxCell>
        <mxCell id="ZRgWqNr8BsxTpK86CNp5-213" value="" style="shape=waypoint;sketch=0;fillStyle=solid;size=6;pointerEvents=1;points=[];fillColor=none;resizable=0;rotatable=0;perimeter=centerPerimeter;snapToPoint=1;strokeColor=#16FF56;strokeWidth=2.5;" parent="1" vertex="1">
          <mxGeometry x="626.25" y="-111" width="20" height="20" as="geometry" />
        </mxCell>
        <mxCell id="ZRgWqNr8BsxTpK86CNp5-340" value="" style="endArrow=none;html=1;rounded=0;strokeColor=#16FF56;strokeWidth=2.5;" parent="1" target="ZRgWqNr8BsxTpK86CNp5-219" edge="1">
          <mxGeometry width="50" height="50" relative="1" as="geometry">
            <mxPoint x="345" y="-101" as="sourcePoint" />
            <mxPoint x="405" y="-101" as="targetPoint" />
          </mxGeometry>
        </mxCell>
        <mxCell id="ZRgWqNr8BsxTpK86CNp5-219" value="" style="shape=waypoint;sketch=0;fillStyle=solid;size=6;pointerEvents=1;points=[];fillColor=none;resizable=0;rotatable=0;perimeter=centerPerimeter;snapToPoint=1;strokeColor=#16FF56;strokeWidth=2.5;" parent="1" vertex="1">
          <mxGeometry x="376" y="-111" width="20" height="20" as="geometry" />
        </mxCell>
        <mxCell id="ZRgWqNr8BsxTpK86CNp5-341" value="" style="endArrow=none;html=1;rounded=0;entryDx=0;entryDy=0;entryPerimeter=0;strokeWidth=2.5;" parent="1" target="ZRgWqNr8BsxTpK86CNp5-282" edge="1">
          <mxGeometry width="50" height="50" relative="1" as="geometry">
            <mxPoint x="809" y="-21.420000000000073" as="sourcePoint" />
            <mxPoint x="809" y="-101" as="targetPoint" />
          </mxGeometry>
        </mxCell>
        <mxCell id="ZRgWqNr8BsxTpK86CNp5-282" value="" style="shape=waypoint;sketch=0;fillStyle=solid;size=6;pointerEvents=1;points=[];fillColor=none;resizable=0;rotatable=0;perimeter=centerPerimeter;snapToPoint=1;strokeColor=#16FF56;strokeWidth=2.5;" parent="1" vertex="1">
          <mxGeometry x="798.75" y="-111" width="20" height="20" as="geometry" />
        </mxCell>
        <mxCell id="ZRgWqNr8BsxTpK86CNp5-342" value="" style="endArrow=none;html=1;rounded=0;entryX=0.999;entryY=0.052;entryDx=0;entryDy=0;entryPerimeter=0;strokeWidth=2.5;" parent="1" source="ZRgWqNr8BsxTpK86CNp5-278" edge="1">
          <mxGeometry width="50" height="50" relative="1" as="geometry">
            <mxPoint x="989" y="-20.420000000000073" as="sourcePoint" />
            <mxPoint x="989" y="-100" as="targetPoint" />
          </mxGeometry>
        </mxCell>
        <mxCell id="ZRgWqNr8BsxTpK86CNp5-344" value="" style="endArrow=none;html=1;rounded=0;entryDx=0;entryDy=0;entryPerimeter=0;strokeWidth=2.5;" parent="1" target="ZRgWqNr8BsxTpK86CNp5-278" edge="1">
          <mxGeometry width="50" height="50" relative="1" as="geometry">
            <mxPoint x="989" y="-20.420000000000073" as="sourcePoint" />
            <mxPoint x="989" y="-100" as="targetPoint" />
          </mxGeometry>
        </mxCell>
        <mxCell id="ZRgWqNr8BsxTpK86CNp5-278" value="" style="shape=waypoint;sketch=0;fillStyle=solid;size=6;pointerEvents=1;points=[];fillColor=none;resizable=0;rotatable=0;perimeter=centerPerimeter;snapToPoint=1;strokeColor=#16FF56;strokeWidth=2.5;" parent="1" vertex="1">
          <mxGeometry x="978.75" y="-111" width="20" height="20" as="geometry" />
        </mxCell>
        <mxCell id="ZRgWqNr8BsxTpK86CNp5-345" value="&lt;b&gt;&lt;font style=&quot;font-size: 14px;&quot;&gt;V&lt;sub style=&quot;&quot;&gt;IN_N&lt;/sub&gt;&lt;/font&gt;&lt;/b&gt;" style="text;strokeColor=none;align=center;fillColor=none;html=1;verticalAlign=middle;whiteSpace=wrap;rounded=0;strokeWidth=2.5;" parent="1" vertex="1">
          <mxGeometry x="61" y="-100" width="70" height="25" as="geometry" />
        </mxCell>
        <mxCell id="ZRgWqNr8BsxTpK86CNp5-346" value="&lt;font style=&quot;font-size: 18px;&quot;&gt;&lt;b&gt;C&lt;sub style=&quot;&quot;&gt;B&lt;/sub&gt;&lt;/b&gt;&lt;/font&gt;" style="text;strokeColor=none;align=center;fillColor=none;html=1;verticalAlign=middle;whiteSpace=wrap;rounded=0;strokeWidth=2.5;" parent="1" vertex="1">
          <mxGeometry x="673" y="300" width="60" height="30" as="geometry" />
        </mxCell>
        <mxCell id="ZRgWqNr8BsxTpK86CNp5-347" value="&lt;font style=&quot;font-size: 18px;&quot;&gt;&lt;b&gt;C&lt;sub style=&quot;&quot;&gt;B&lt;/sub&gt;&lt;/b&gt;&lt;/font&gt;" style="text;strokeColor=none;align=center;fillColor=none;html=1;verticalAlign=middle;whiteSpace=wrap;rounded=0;strokeWidth=2.5;" parent="1" vertex="1">
          <mxGeometry x="673" y="150" width="60" height="30" as="geometry" />
        </mxCell>
        <mxCell id="ZRgWqNr8BsxTpK86CNp5-349" value="" style="pointerEvents=1;verticalLabelPosition=bottom;shadow=0;dashed=0;align=center;html=1;verticalAlign=top;shape=mxgraph.electrical.electro-mechanical.manualSwitch2;elSwitchState=off;strokeWidth=2.5;" parent="1" vertex="1">
          <mxGeometry x="1050" y="178.3" width="75" height="18" as="geometry" />
        </mxCell>
        <mxCell id="ZRgWqNr8BsxTpK86CNp5-350" value="" style="pointerEvents=1;verticalLabelPosition=bottom;shadow=0;dashed=0;align=center;html=1;verticalAlign=top;shape=mxgraph.electrical.electro-mechanical.manualSwitch2;elSwitchState=off;strokeWidth=2.5;" parent="1" vertex="1">
          <mxGeometry x="1050" y="267" width="75" height="18" as="geometry" />
        </mxCell>
        <mxCell id="ZRgWqNr8BsxTpK86CNp5-351" value="" style="pointerEvents=1;verticalLabelPosition=bottom;shadow=0;dashed=0;align=center;html=1;verticalAlign=top;shape=mxgraph.electrical.electro-mechanical.manualSwitch2;elSwitchState=off;direction=north;strokeWidth=2.5;" parent="1" vertex="1">
          <mxGeometry x="1017" y="204" width="18" height="75" as="geometry" />
        </mxCell>
        <mxCell id="ZRgWqNr8BsxTpK86CNp5-352" value="" style="endArrow=none;html=1;rounded=0;strokeWidth=2.5;" parent="1" edge="1">
          <mxGeometry width="50" height="50" relative="1" as="geometry">
            <mxPoint x="1035" y="206.3" as="sourcePoint" />
            <mxPoint x="1035" y="196.3" as="targetPoint" />
          </mxGeometry>
        </mxCell>
        <mxCell id="ZRgWqNr8BsxTpK86CNp5-355" value="" style="endArrow=none;html=1;rounded=0;strokeWidth=2.5;" parent="1" edge="1">
          <mxGeometry width="50" height="50" relative="1" as="geometry">
            <mxPoint x="1035" y="285" as="sourcePoint" />
            <mxPoint x="1035" y="275" as="targetPoint" />
          </mxGeometry>
        </mxCell>
        <mxCell id="ZRgWqNr8BsxTpK86CNp5-356" value="" style="endArrow=classic;html=1;rounded=0;strokeWidth=2.5;" parent="1" edge="1">
          <mxGeometry width="50" height="50" relative="1" as="geometry">
            <mxPoint x="1125" y="196.3" as="sourcePoint" />
            <mxPoint x="1180" y="196" as="targetPoint" />
          </mxGeometry>
        </mxCell>
        <mxCell id="ZRgWqNr8BsxTpK86CNp5-357" value="" style="endArrow=classic;html=1;rounded=0;strokeWidth=2.5;" parent="1" edge="1">
          <mxGeometry width="50" height="50" relative="1" as="geometry">
            <mxPoint x="1125" y="285" as="sourcePoint" />
            <mxPoint x="1180" y="285" as="targetPoint" />
          </mxGeometry>
        </mxCell>
        <mxCell id="ZRgWqNr8BsxTpK86CNp5-358" value="&lt;b&gt;&lt;font style=&quot;color: rgb(255, 102, 102); font-size: 20px;&quot;&gt;Out_p&lt;/font&gt;&lt;/b&gt;" style="text;strokeColor=none;align=center;fillColor=none;html=1;verticalAlign=middle;whiteSpace=wrap;rounded=0;strokeWidth=2.5;" parent="1" vertex="1">
          <mxGeometry x="1150" y="150" width="60" height="30" as="geometry" />
        </mxCell>
        <mxCell id="ZRgWqNr8BsxTpK86CNp5-359" value="&lt;b&gt;&lt;font style=&quot;color: rgb(255, 102, 102); font-size: 20px;&quot;&gt;Out_n&lt;/font&gt;&lt;/b&gt;" style="text;strokeColor=none;align=center;fillColor=none;html=1;verticalAlign=middle;whiteSpace=wrap;rounded=0;strokeWidth=2.5;" parent="1" vertex="1">
          <mxGeometry x="1150" y="300" width="60" height="30" as="geometry" />
        </mxCell>
        <mxCell id="ZRgWqNr8BsxTpK86CNp5-360" value="&lt;font style=&quot;font-size: 14px; color: light-dark(rgb(184, 84, 80), rgb(237, 237, 237));&quot;&gt;Boostrapped SW&lt;/font&gt;&lt;div&gt;&lt;br&gt;&lt;/div&gt;&lt;div&gt;&lt;br&gt;&lt;/div&gt;&lt;div&gt;&lt;br&gt;&lt;/div&gt;&lt;div&gt;&lt;br&gt;&lt;/div&gt;" style="rounded=1;whiteSpace=wrap;html=1;fillColor=none;dashed=1;strokeColor=#b85450;strokeWidth=2.5;" parent="1" vertex="1">
          <mxGeometry x="140" y="-150" width="122.27" height="102" as="geometry" />
        </mxCell>
        <mxCell id="ZRgWqNr8BsxTpK86CNp5-361" value="&lt;font style=&quot;font-size: 14px; color: light-dark(rgb(184, 84, 80), rgb(237, 237, 237));&quot;&gt;Boostrapped SW&lt;/font&gt;&lt;div&gt;&lt;br&gt;&lt;/div&gt;&lt;div&gt;&lt;br&gt;&lt;/div&gt;&lt;div&gt;&lt;br&gt;&lt;/div&gt;&lt;div&gt;&lt;br&gt;&lt;/div&gt;" style="rounded=1;whiteSpace=wrap;html=1;fillColor=none;dashed=1;strokeColor=#b85450;strokeWidth=2.5;" parent="1" vertex="1">
          <mxGeometry x="140" y="493.5" width="122.27" height="102" as="geometry" />
        </mxCell>
        <mxCell id="ZRgWqNr8BsxTpK86CNp5-362" value="" style="rounded=1;whiteSpace=wrap;html=1;fillColor=none;dashed=1;strokeWidth=2.5;strokeColor=#9673a6;" parent="1" vertex="1">
          <mxGeometry x="1060" y="170" width="70" height="40" as="geometry" />
        </mxCell>
        <mxCell id="ZRgWqNr8BsxTpK86CNp5-363" value="" style="rounded=1;whiteSpace=wrap;html=1;fillColor=none;dashed=1;strokeWidth=2.5;strokeColor=#9673a6;" parent="1" vertex="1">
          <mxGeometry x="1060" y="260" width="70" height="40" as="geometry" />
        </mxCell>
        <mxCell id="ZRgWqNr8BsxTpK86CNp5-364" value="" style="rounded=1;whiteSpace=wrap;html=1;fillColor=none;dashed=1;strokeWidth=2.5;strokeColor=#9673a6;direction=south;" parent="1" vertex="1">
          <mxGeometry x="1010" y="206.5" width="40" height="70" as="geometry" />
        </mxCell>
        <mxCell id="ZRgWqNr8BsxTpK86CNp5-365" value="&lt;font style=&quot;font-size: 16px; color: light-dark(rgb(150, 115, 166), rgb(237, 237, 237));&quot;&gt;&lt;b style=&quot;&quot;&gt;TG Switch&lt;/b&gt;&lt;/font&gt;" style="text;strokeColor=none;align=center;fillColor=none;html=1;verticalAlign=middle;whiteSpace=wrap;rounded=0;strokeWidth=2.5;" parent="1" vertex="1">
          <mxGeometry x="1050" y="221" width="90" height="30" as="geometry" />
        </mxCell>
        <mxCell id="ZRgWqNr8BsxTpK86CNp5-366" value="&lt;font style=&quot;font-size: 26px;&quot;&gt;&lt;b&gt;...&lt;/b&gt;&lt;/font&gt;" style="text;strokeColor=none;align=center;fillColor=none;html=1;verticalAlign=middle;whiteSpace=wrap;rounded=0;" parent="1" vertex="1">
          <mxGeometry x="466.5" y="375" width="60" height="30" as="geometry" />
        </mxCell>
        <mxCell id="ZRgWqNr8BsxTpK86CNp5-367" value="&lt;font style=&quot;font-size: 26px;&quot;&gt;&lt;b&gt;...&lt;/b&gt;&lt;/font&gt;" style="text;strokeColor=none;align=center;fillColor=none;html=1;verticalAlign=middle;whiteSpace=wrap;rounded=0;" parent="1" vertex="1">
          <mxGeometry x="825" y="375" width="60" height="30" as="geometry" />
        </mxCell>
        <mxCell id="ZRgWqNr8BsxTpK86CNp5-368" value="&lt;font style=&quot;font-size: 26px;&quot;&gt;&lt;b&gt;...&lt;/b&gt;&lt;/font&gt;" style="text;strokeColor=none;align=center;fillColor=none;html=1;verticalAlign=middle;whiteSpace=wrap;rounded=0;" parent="1" vertex="1">
          <mxGeometry x="825" y="100" width="60" height="30" as="geometry" />
        </mxCell>
        <mxCell id="ZRgWqNr8BsxTpK86CNp5-369" value="&lt;font style=&quot;font-size: 26px;&quot;&gt;&lt;b&gt;...&lt;/b&gt;&lt;/font&gt;" style="text;strokeColor=none;align=center;fillColor=none;html=1;verticalAlign=middle;whiteSpace=wrap;rounded=0;" parent="1" vertex="1">
          <mxGeometry x="465" y="100" width="60" height="30" as="geometry" />
        </mxCell>
        <mxCell id="ud3He-PzusQw4KlZ0cw7-1" value="" style="rounded=1;whiteSpace=wrap;html=1;fillColor=none;dashed=1;strokeWidth=2;strokeColor=#FF9933;" vertex="1" parent="1">
          <mxGeometry x="937.5" y="430" width="62.5" height="90" as="geometry" />
        </mxCell>
        <mxCell id="ud3He-PzusQw4KlZ0cw7-2" value="" style="rounded=1;whiteSpace=wrap;html=1;fillColor=none;dashed=1;strokeWidth=2;strokeColor=#FF9933;" vertex="1" parent="1">
          <mxGeometry x="936.25" y="-32" width="62.5" height="90" as="geometry" />
        </mxCell>
        <mxCell id="ud3He-PzusQw4KlZ0cw7-3" value="&lt;font style=&quot;font-size: 14px; color: light-dark(rgb(255, 153, 51), rgb(237, 237, 237));&quot;&gt;&lt;b&gt;Switch Network&lt;/b&gt;&lt;/font&gt;" style="text;strokeColor=none;align=center;fillColor=none;html=1;verticalAlign=middle;whiteSpace=wrap;rounded=0;strokeWidth=2.5;" vertex="1" parent="1">
          <mxGeometry x="1005" y="-10" width="60" height="30" as="geometry" />
        </mxCell>
      </root>
    </mxGraphModel>
  </diagram>
</mxfile>
